<svg width="136" height="41" viewBox="0 0 136 41" fill="none" xmlns="http://www.w3.org/2000/svg">
<path d="M53.64 25.3517V21.7387H59.0595C60.3864 21.7387 61.4172 21.4019 62.152 20.7283C62.8971 20.0445 63.2696 19.0749 63.2696 17.8195V17.7889C63.2696 16.5335 62.8971 15.5691 62.152 14.8954C61.4172 14.2218 60.3864 13.885 59.0595 13.885H53.64V10.2261H60.1924C61.7438 10.2261 63.1012 10.5425 64.2647 11.1753C65.4282 11.7978 66.3315 12.6756 66.9745 13.8085C67.6277 14.9414 67.9543 16.2631 67.9543 17.7736V17.8042C67.9543 19.325 67.6277 20.6518 66.9745 21.7847C66.3315 22.9176 65.4282 23.7953 64.2647 24.4179C63.1012 25.0405 61.7438 25.3517 60.1924 25.3517H53.64ZM51.313 32.3175V10.2261H55.9364V32.3175H51.313Z" fill="#132457"/>
<path d="M73.685 32.5778C72.593 32.5778 71.6336 32.3686 70.8069 31.9501C69.9802 31.5214 69.3321 30.9346 68.8626 30.1895C68.4033 29.4343 68.1736 28.5769 68.1736 27.6175V27.5869C68.1736 26.5867 68.4237 25.7345 68.9238 25.0303C69.4239 24.3158 70.1486 23.7545 71.0977 23.3462C72.0469 22.938 73.2002 22.6879 74.5577 22.5961L80.957 22.198V24.9843L75.2313 25.3517C74.3739 25.4028 73.7207 25.6069 73.2717 25.9641C72.8226 26.3111 72.5981 26.7755 72.5981 27.3573V27.3879C72.5981 27.9901 72.8277 28.4647 73.287 28.8117C73.7463 29.1485 74.3637 29.3169 75.1394 29.3169C75.8028 29.3169 76.3948 29.1893 76.9153 28.9341C77.446 28.6688 77.8594 28.3116 78.1554 27.8625C78.4615 27.4032 78.6146 26.8878 78.6146 26.3162V21.3407C78.6146 20.616 78.385 20.0445 77.9257 19.626C77.4664 19.1974 76.7979 18.983 75.9202 18.983C75.0833 18.983 74.4199 19.1566 73.93 19.5036C73.4401 19.8506 73.139 20.2894 73.0267 20.8202L72.9961 20.958H68.9085L68.9238 20.7742C69.0055 19.7638 69.3372 18.8657 69.9189 18.0798C70.5109 17.2939 71.3274 16.6815 72.3684 16.2427C73.4197 15.7936 74.6648 15.5691 76.1039 15.5691C77.5226 15.5691 78.7524 15.7987 79.7935 16.258C80.8345 16.707 81.6408 17.3449 82.2124 18.1716C82.7941 18.9984 83.085 19.9628 83.085 21.0651V32.3175H78.6146V29.868H78.5228C78.2166 30.4294 77.8186 30.9142 77.3287 31.3224C76.849 31.7205 76.3029 32.0317 75.6906 32.2563C75.0782 32.4706 74.4097 32.5778 73.685 32.5778Z" fill="#132457"/>
<path d="M85.5395 32.3175V15.9059H90.0098V18.7687H90.1017C90.3467 17.7583 90.7906 16.9724 91.4336 16.4111C92.0766 15.8497 92.8778 15.5691 93.8372 15.5691C94.0821 15.5691 94.3169 15.5844 94.5414 15.615C94.766 15.6456 94.9599 15.6864 95.1232 15.7375V19.672C94.9395 19.6005 94.7047 19.5444 94.419 19.5036C94.1332 19.4525 93.827 19.427 93.5004 19.427C92.7655 19.427 92.1379 19.5699 91.6173 19.8557C91.0968 20.1415 90.6988 20.5599 90.4232 21.111C90.1476 21.6622 90.0098 22.3358 90.0098 23.1319V32.3175H85.5395Z" fill="#132457"/>
<path d="M96.6745 32.3175V10.2261H101.145V32.3175H96.6745ZM106.993 32.3175L101.926 25.0609L104.758 21.6622L112.152 32.3175H106.993ZM100.594 27.4798V22.4736H101.237L106.779 15.9059H111.846L104.268 24.525H103.273L100.594 27.4798Z" fill="#132457"/>
<path d="M113.061 32.3175V10.2261H117.531V32.3175H113.061Z" fill="#132457"/>
<path d="M122.68 37.7217C122.241 37.7217 121.817 37.7013 121.409 37.6605C121.001 37.6197 120.664 37.5737 120.399 37.5227V34.2006C120.562 34.2312 120.771 34.2618 121.026 34.2924C121.282 34.3333 121.572 34.3537 121.899 34.3537C122.573 34.3537 123.103 34.2414 123.491 34.0169C123.879 33.7923 124.17 33.4045 124.364 32.8533L124.563 32.3175L118.761 15.9059H123.675L127.38 29.6231L126.783 28.7351H127.625L127.028 29.6231L130.733 15.9059H135.448L129.814 32.6084C129.385 33.8944 128.844 34.9099 128.191 35.655C127.548 36.4 126.773 36.9307 125.864 37.2471C124.956 37.5635 123.894 37.7217 122.68 37.7217Z" fill="#132457"/>
<rect width="41.9465" height="40.6202" rx="8.1932" fill="#2C7FFF"/>
<path d="M32.942 15.2535C32.942 16.8482 32.576 19.2954 31.844 20.6287C31.1119 21.9359 29.9878 22.9947 28.4715 23.8052C26.9551 24.6156 25.0728 25.0208 22.8245 25.0208H18.0122V28.9788V32.2812C18.0122 33.0052 17.4253 33.5921 16.7013 33.5921H13.2728C12.5488 33.5921 11.9619 33.0052 11.9619 32.2812V7.9288C11.9619 7.07942 12.6505 6.39087 13.4998 6.39087H22.8245C25.0205 6.39087 26.8767 6.76995 28.393 7.52811C29.9093 8.28626 31.0466 9.332 31.8047 10.6653C32.5629 11.9986 32.942 13.528 32.942 15.2535ZM22.3147 20.1792C25.3168 20.2373 25.8083 18.8445 26.2999 18.1071C26.774 17.2878 26.774 16.3515 26.774 15.2535C26.774 14.1555 26.3538 12.9732 25.7264 12.3719C25.099 11.7706 23.5957 11.311 22.3147 11.311H17.8484V20.1792H22.3147Z" fill="#EEF6FF"/>
</svg>
