<svg width="24" height="24" viewBox="0 0 24 24" fill="none" xmlns="http://www.w3.org/2000/svg">
<path d="M11.5679 2.51645C14.6565 2.51645 15.0223 2.52802 16.2424 2.58365C16.976 2.59263 17.7026 2.72733 18.3907 2.9819C18.8897 3.17432 19.3429 3.4691 19.721 3.84724C20.0992 4.22539 20.394 4.67852 20.5864 5.17748C20.841 5.86553 20.9757 6.59213 20.9847 7.3257C21.0398 8.54578 21.0519 8.91152 21.0519 12C21.0519 15.0885 21.0403 15.4542 20.9847 16.6743C20.9757 17.4079 20.841 18.1345 20.5864 18.8225C20.394 19.3215 20.0992 19.7746 19.721 20.1528C19.3429 20.5309 18.8897 20.8257 18.3907 21.0181C17.7026 21.2727 16.976 21.4074 16.2424 21.4163C15.0228 21.4714 14.657 21.4835 11.5679 21.4835C8.4787 21.4835 8.11293 21.472 6.89335 21.4163C6.15974 21.4074 5.43311 21.2727 4.74503 21.0181C4.24605 20.8257 3.79289 20.5309 3.41473 20.1528C3.03656 19.7746 2.74177 19.3215 2.54934 18.8225C2.29476 18.1345 2.16005 17.4079 2.15107 16.6743C2.09599 15.4542 2.08387 15.0885 2.08387 12C2.08387 8.91152 2.09544 8.54578 2.15107 7.3257C2.16005 6.59213 2.29476 5.86553 2.54934 5.17748C2.74177 4.67852 3.03656 4.22539 3.41473 3.84724C3.79289 3.4691 4.24605 3.17432 4.74503 2.9819C5.43311 2.72733 6.15974 2.59263 6.89335 2.58365C8.11348 2.52857 8.47925 2.51645 11.5679 2.51645ZM11.5679 0.432129C8.42802 0.432129 8.03251 0.445349 6.7986 0.501533C5.8385 0.520629 4.88858 0.702408 3.98926 1.03914C3.21779 1.32979 2.51904 1.78527 1.94175 2.37379C1.35267 2.95126 0.896782 3.65038 0.605936 4.4223C0.26919 5.32158 0.0874024 6.27145 0.0683056 7.23151C0.0132205 8.46426 0 8.85975 0 11.9994C0 15.1391 0.0132204 15.5346 0.0694072 16.7685C0.088504 17.7286 0.270292 18.6784 0.607038 19.5777C0.897561 20.3495 1.35307 21.0486 1.94175 21.6262C2.51936 22.2149 3.2185 22.6704 3.99036 22.9609C4.88968 23.2976 5.8396 23.4794 6.7997 23.4985C8.03361 23.5535 8.42747 23.5679 11.569 23.5679C14.7105 23.5679 15.1043 23.5547 16.3382 23.4985C17.2983 23.4794 18.2483 23.2976 19.1476 22.9609C19.9158 22.6631 20.6134 22.2083 21.1958 21.6256C21.7782 21.0428 22.2325 20.345 22.5298 19.5766C22.8666 18.6773 23.0483 17.7274 23.0674 16.7674C23.1225 15.5346 23.1357 15.1391 23.1357 11.9994C23.1357 8.85975 23.1225 8.46426 23.0663 7.23041C23.0472 6.27035 22.8654 5.32048 22.5287 4.4212C22.2382 3.64937 21.7827 2.95026 21.194 2.37268C20.6164 1.78403 19.9172 1.32855 19.1454 1.03804C18.2461 0.701306 17.2961 0.519527 16.336 0.500431C15.1032 0.445349 14.7077 0.432129 11.5679 0.432129Z" fill="#27272A"/>
<path d="M11.5659 6.05981C10.391 6.05981 9.24246 6.4082 8.26557 7.0609C7.28868 7.71361 6.52729 8.64132 6.07768 9.72673C5.62806 10.8121 5.51042 12.0065 5.73963 13.1588C5.96884 14.311 6.53461 15.3695 7.36539 16.2002C8.19616 17.0309 9.25464 17.5967 10.407 17.8259C11.5593 18.0551 12.7537 17.9374 13.8392 17.4878C14.9246 17.0382 15.8524 16.2769 16.5051 15.3C17.1578 14.3232 17.5062 13.1747 17.5062 11.9999C17.5062 10.4245 16.8804 8.91361 15.7663 7.79963C14.6523 6.68564 13.1414 6.05981 11.5659 6.05981ZM11.5659 15.8557C10.8032 15.8557 10.0577 15.6295 9.42361 15.2059C8.7895 14.7822 8.29528 14.18 8.00343 13.4755C7.71158 12.7709 7.63522 11.9956 7.784 11.2477C7.93279 10.4997 8.30003 9.81271 8.8393 9.27347C9.37856 8.73423 10.0656 8.367 10.8136 8.21822C11.5616 8.06945 12.3369 8.1458 13.0415 8.43764C13.7461 8.72947 14.3483 9.22368 14.772 9.85776C15.1957 10.4918 15.4218 11.2373 15.4218 11.9999C15.4218 13.0225 15.0156 14.0033 14.2924 14.7264C13.5693 15.4495 12.5885 15.8557 11.5659 15.8557Z" fill="#27272A"/>
<path d="M17.7417 7.21268C18.5083 7.21268 19.1298 6.59122 19.1298 5.8246C19.1298 5.05799 18.5083 4.43652 17.7417 4.43652C16.975 4.43652 16.3535 5.05799 16.3535 5.8246C16.3535 6.59122 16.975 7.21268 17.7417 7.21268Z" fill="#27272A"/>
</svg>
