<svg width="24" height="22" viewBox="0 0 24 22" fill="none" xmlns="http://www.w3.org/2000/svg">
<path d="M24 2.48651C23.1 2.92855 22.15 3.20483 21.15 3.3706C22.15 2.70753 22.95 1.65767 23.3 0.38679C22.35 0.994602 21.3 1.43665 20.15 1.71293C19.25 0.663068 17.95 0 16.55 0C13.85 0 11.65 2.43125 11.65 5.41506C11.65 5.8571 11.7 6.24389 11.8 6.63068C7.75 6.40966 4.1 4.25469 1.65 0.939347C1.25 1.76818 1 2.65227 1 3.64687C1 5.52557 1.85 7.18324 3.2 8.17784C2.4 8.12258 1.65 7.90156 0.95 7.51477V7.57003C0.95 10.2223 2.65 12.4325 4.9 12.9298C4.5 13.0403 4.05 13.0956 3.6 13.0956C3.3 13.0956 2.95 13.0403 2.65 12.9851C3.3 15.1401 5.1 16.7425 7.25 16.7425C5.55 18.1791 3.45 19.0632 1.15 19.0632C0.75 19.0632 0.35 19.0632 0 19.008C2.2 20.5551 4.75 21.4392 7.55 21.4392C16.6 21.4392 21.55 13.1509 21.55 5.96761C21.55 5.74659 21.55 5.47031 21.55 5.24929C22.5 4.53097 23.35 3.59162 24 2.48651Z" fill="#27272A"/>
</svg>
