<svg width="20" height="20" viewBox="0 0 20 20" fill="none" xmlns="http://www.w3.org/2000/svg">
<path d="M13.3926 10.9582C13.2019 10.7687 13.1185 10.4967 13.1684 10.2324C13.2182 9.96807 13.3959 9.7449 13.6429 9.63765L18.3564 7.82848C18.6598 7.6909 18.8472 7.38215 18.832 7.04957C18.8158 6.71698 18.5991 6.42773 18.2839 6.32048L2.02736 1.01107C1.73919 0.922234 1.42611 1.00023 1.21377 1.21365C1.00036 1.42598 0.922356 1.73907 1.01119 2.02723L6.31736 18.287C6.42569 18.6022 6.71386 18.8189 7.04644 18.8352C7.37902 18.8503 7.68777 18.6618 7.82536 18.3596L9.63561 13.646C9.74286 13.399 9.96494 13.2213 10.2293 13.1715C10.4936 13.1217 10.7655 13.2051 10.9551 13.3957L16.167 18.6066C16.4834 18.924 16.9979 18.924 17.3154 18.6066L18.6045 17.3217C18.9209 17.0043 18.9209 16.4897 18.6045 16.1723L13.3926 10.9582Z" stroke="white" stroke-width="1.95" stroke-linecap="round" stroke-linejoin="round"/>
</svg>
