<svg width="52" height="58" viewBox="0 0 52 58" fill="none" xmlns="http://www.w3.org/2000/svg">
<path d="M24 58C17.5894 58 11.5624 55.5036 7.02938 50.9706C2.49638 46.4376 0 40.4106 0 34C0 27.5894 2.49647 21.5625 7.02938 17.0294C11.5623 12.4963 17.5894 10 24 10C30.4106 10 36.4376 12.4964 40.9706 17.0294C45.5036 21.5624 48 27.5894 48 34C48 40.4106 45.5035 46.4375 40.9706 50.9706C36.4377 55.5037 30.4106 58 24 58ZM24 13C12.4206 13 3 22.4206 3 34C3 45.5794 12.4206 55 24 55C35.5794 55 45 45.5794 45 34C45 22.4206 35.5794 13 24 13Z" fill="#F9F9F9"/>
<path d="M24 32.5C21.9323 32.5 20.25 30.8177 20.25 28.75C20.25 26.6823 21.9323 25 24 25C26.0677 25 27.75 26.6823 27.75 28.75C27.75 29.5784 28.4215 30.25 29.25 30.25C30.0785 30.25 30.75 29.5784 30.75 28.75C30.75 25.5437 28.5021 22.8542 25.5 22.1701V20.5C25.5 19.6716 24.8285 19 24 19C23.1715 19 22.5 19.6716 22.5 20.5V22.1701C19.4979 22.8542 17.25 25.5437 17.25 28.75C17.25 32.472 20.278 35.5 24 35.5C26.0677 35.5 27.75 37.1823 27.75 39.25C27.75 41.3177 26.0677 43 24 43C21.9323 43 20.25 41.3177 20.25 39.25C20.25 38.4216 19.5785 37.75 18.75 37.75C17.9215 37.75 17.25 38.4216 17.25 39.25C17.25 42.4563 19.4979 45.1458 22.5 45.8299V47.5C22.5 48.3284 23.1715 49 24 49C24.8285 49 25.5 48.3284 25.5 47.5V45.8299C28.5021 45.1458 30.75 42.4563 30.75 39.25C30.75 35.528 27.722 32.5 24 32.5Z" fill="#F9F9F9"/>
<g clip-path="url(#clip0_644_14778)">
<path d="M41 0C34.9348 0 30 4.93484 30 11C30 17.0652 34.9348 22 41 22C47.0652 22 52 17.0652 52 11C52 4.93484 47.0652 0 41 0ZM47.1479 8.10526L40.1178 15.0802C39.7043 15.4937 39.0426 15.5213 38.6015 15.1078L34.8797 11.7168C34.4386 11.3033 34.411 10.614 34.797 10.1729C35.2105 9.73183 35.8997 9.70426 36.3409 10.1178L39.2907 12.8195L45.5764 6.53383C46.0175 6.09273 46.7068 6.09273 47.1479 6.53383C47.589 6.97494 47.589 7.66416 47.1479 8.10526Z" fill="#F9F9F9"/>
</g>
<defs>
<clipPath id="clip0_644_14778">
<rect width="22" height="22" fill="white" transform="translate(30)"/>
</clipPath>
</defs>
</svg>
