<svg width="40" height="40" viewBox="0 0 40 40" fill="none" xmlns="http://www.w3.org/2000/svg">
<g clip-path="url(#clip0_644_27726)">
<path d="M28.3334 20C28.3334 24.6024 24.6023 28.3334 19.9999 28.3334C15.3976 28.3334 11.6665 24.6024 11.6665 20C11.6665 15.3976 15.3976 11.6666 19.9999 11.6666C24.6023 11.6666 28.3334 15.3976 28.3334 20Z" fill="#F9F9F9"/>
<path d="M38.3334 18.3334H36.5817C35.7983 10.4718 29.5282 4.20166 21.6666 3.41827V1.66656C21.6666 0.746765 20.9216 0 20 0C19.0784 0 18.3334 0.746765 18.3334 1.66656V3.41827C10.4718 4.20166 4.20166 10.4718 3.41827 18.3334H1.66656C0.744934 18.3334 0 19.0799 0 20C0 20.9201 0.744934 21.6666 1.66656 21.6666H3.41827C4.20319 29.5282 10.4718 35.7983 18.3334 36.5817V38.3334C18.3334 39.2532 19.0784 40 20 40C20.9216 40 21.6666 39.2532 21.6666 38.3334V36.5817C29.5282 35.7968 35.7983 29.5282 36.5817 21.6666H38.3334C39.2551 21.6666 40 20.9201 40 20C40 19.0799 39.2551 18.3334 38.3334 18.3334ZM21.6434 33.2217C21.5833 32.3566 20.8817 31.6666 20 31.6666C19.1183 31.6666 18.4167 32.3566 18.3566 33.2217C12.3199 32.475 7.52655 27.6816 6.78009 21.6449C7.64496 21.5833 8.33344 20.8801 8.33344 20C8.33344 19.1199 7.64496 18.4167 6.77826 18.3566C7.52502 12.3199 12.3184 7.52655 18.3551 6.78009C18.4167 7.64343 19.1183 8.33344 20 8.33344C20.8817 8.33344 21.5833 7.64343 21.6434 6.77826C27.6801 7.52502 32.4734 12.3184 33.2199 18.3551C32.355 18.4167 31.6666 19.1199 31.6666 20C31.6666 20.8801 32.355 21.5833 33.2217 21.6434C32.4734 27.6816 27.6816 32.4734 21.6434 33.2217Z" fill="#F9F9F9"/>
</g>
<defs>
<clipPath id="clip0_644_27726">
<rect width="40" height="40" fill="white"/>
</clipPath>
</defs>
</svg>
