<svg width="26" height="26" viewBox="0 0 26 26" fill="none" xmlns="http://www.w3.org/2000/svg">
<path d="M22.1001 5.19995H3.9001C3.18213 5.19995 2.6001 5.78198 2.6001 6.49995V19.5C2.6001 20.2179 3.18213 20.8 3.9001 20.8H22.1001C22.8181 20.8 23.4001 20.2179 23.4001 19.5V6.49995C23.4001 5.78198 22.8181 5.19995 22.1001 5.19995Z" stroke="white" stroke-width="2"/>
<path d="M2.6001 9.09998H23.4001" stroke="white" stroke-width="2"/>
<path d="M7.8 14.3C8.51797 14.3 9.1 13.7179 9.1 13C9.1 12.282 8.51797 11.7 7.8 11.7C7.08203 11.7 6.5 12.282 6.5 13C6.5 13.7179 7.08203 14.3 7.8 14.3Z" fill="white"/>
<path d="M13.0002 14.3C13.7182 14.3 14.3002 13.7179 14.3002 13C14.3002 12.282 13.7182 11.7 13.0002 11.7C12.2822 11.7 11.7002 12.282 11.7002 13C11.7002 13.7179 12.2822 14.3 13.0002 14.3Z" fill="white"/>
<path d="M18.1999 14.3C18.9179 14.3 19.4999 13.7179 19.4999 13C19.4999 12.282 18.9179 11.7 18.1999 11.7C17.4819 11.7 16.8999 12.282 16.8999 13C16.8999 13.7179 17.4819 14.3 18.1999 14.3Z" fill="white"/>
<path d="M5.2002 2.59998L7.8002 5.19998L5.2002 7.79998" stroke="white" stroke-width="2" stroke-linecap="round" stroke-linejoin="round"/>
</svg>
