<svg width="26" height="26" viewBox="0 0 26 26" fill="none" xmlns="http://www.w3.org/2000/svg">
<path d="M9.75 1.625V2.4375" stroke="white" stroke-width="1.95" stroke-linecap="round" stroke-linejoin="round"/>
<path d="M1.625 9.75H2.4375" stroke="white" stroke-width="1.95" stroke-linecap="round" stroke-linejoin="round"/>
<path d="M13 3.25L13.8125 1.625" stroke="white" stroke-width="1.95" stroke-linecap="round" stroke-linejoin="round"/>
<path d="M3.25 13L1.625 13.8125" stroke="white" stroke-width="1.95" stroke-linecap="round" stroke-linejoin="round"/>
<path d="M16.4883 14.0509C16.2976 13.8613 16.2142 13.5894 16.2641 13.3251C16.3139 13.0607 16.4916 12.8376 16.7386 12.7303L21.4521 10.9211C21.7555 10.7836 21.9429 10.4748 21.9277 10.1422C21.9115 9.80964 21.6948 9.52039 21.3796 9.41314L5.12306 4.10372C4.83489 4.01489 4.52181 4.09289 4.30948 4.3063C4.09606 4.51864 4.01806 4.83172 4.10689 5.11989L9.41306 21.3796C9.52139 21.6949 9.80956 21.9116 10.1421 21.9278C10.4747 21.943 10.7835 21.7545 10.9211 21.4522L12.7313 16.7386C12.8386 16.4916 13.0606 16.314 13.325 16.2641C13.5893 16.2143 13.8612 16.2977 14.0508 16.4884L19.2627 21.6992C19.5791 22.0166 20.0936 22.0166 20.4111 21.6992L21.7002 20.4144C22.0166 20.097 22.0166 19.5824 21.7002 19.265L16.4883 14.0509Z" stroke="white" stroke-width="1.95" stroke-linecap="round" stroke-linejoin="round"/>
</svg>
