<svg width="40" height="40" viewBox="0 0 40 40" fill="none" xmlns="http://www.w3.org/2000/svg">
<path d="M16.25 1.25C13.2833 1.25 10.3832 2.12973 7.91645 3.77796C5.44972 5.42618 3.52713 7.76886 2.39181 10.5097C1.2565 13.2506 0.959449 16.2666 1.53823 19.1764C2.11701 22.0861 3.54562 24.7588 5.6434 26.8566C7.74119 28.9544 10.4139 30.383 13.3237 30.9618C16.2334 31.5406 19.2494 31.2435 21.9903 30.1082C24.7311 28.9729 27.0738 27.0503 28.722 24.5836C30.3703 22.1168 31.25 19.2167 31.25 16.25C31.2455 12.2731 29.6636 8.46048 26.8516 5.64842C24.0395 2.83636 20.2269 1.25455 16.25 1.25ZM16.25 27.5C14.025 27.5 11.8499 26.8402 9.99984 25.604C8.14979 24.3679 6.70785 22.6109 5.85636 20.5552C5.00488 18.4995 4.78209 16.2375 5.21617 14.0552C5.65026 11.8729 6.72171 9.86839 8.29505 8.29505C9.8684 6.72171 11.873 5.65025 14.0552 5.21617C16.2375 4.78208 18.4995 5.00487 20.5552 5.85636C22.6109 6.70784 24.3679 8.14978 25.604 9.99984C26.8402 11.8499 27.5 14.025 27.5 16.25C27.4966 19.2326 26.3102 22.0921 24.2012 24.2012C22.0921 26.3102 19.2326 27.4966 16.25 27.5ZM37.7902 37.7902C37.1753 38.4039 36.3421 38.7485 35.4733 38.7485C34.6046 38.7485 33.7714 38.4039 33.1564 37.7902L27.6831 32.3169C27.6251 32.2589 27.579 32.19 27.5476 32.1141C27.5162 32.0383 27.5 31.9571 27.5 31.875C27.5 31.7929 27.5162 31.7116 27.5476 31.6358C27.579 31.56 27.6251 31.4911 27.6831 31.4331L31.4331 27.6831C31.4911 27.625 31.56 27.579 31.6359 27.5476C31.7117 27.5162 31.793 27.5 31.875 27.5C31.9571 27.5 32.0384 27.5162 32.1142 27.5476C32.19 27.579 32.2589 27.625 32.3169 27.6831L37.7903 33.1564C38.4038 33.7714 38.7484 34.6046 38.7483 35.4733C38.7483 36.342 38.4038 37.1752 37.7902 37.7902ZM30.0563 27.2937L27.2938 30.0562L26.2688 29.0312C27.3016 28.2297 28.2297 27.3016 29.0313 26.2687L30.0563 27.2937ZM16.25 7.5C14.4273 7.50206 12.6798 8.22705 11.3909 9.51592C10.1021 10.8048 9.37707 12.5523 9.37501 14.375C9.37501 19.6152 15.5948 24.6512 15.8597 24.863C15.9704 24.9517 16.1081 25 16.25 25C16.3919 25 16.5296 24.9517 16.6403 24.863C16.9052 24.6512 23.125 19.6152 23.125 14.375C23.1229 12.5523 22.398 10.8048 21.1091 9.51592C19.8202 8.22705 18.0727 7.50206 16.25 7.5ZM16.25 17.5C15.6319 17.5 15.0278 17.3167 14.5139 16.9733C13.9999 16.63 13.5994 16.1419 13.3629 15.5709C13.1264 14.9999 13.0645 14.3715 13.1851 13.7653C13.3056 13.1592 13.6033 12.6023 14.0403 12.1653C14.4773 11.7283 15.0342 11.4306 15.6403 11.31C16.2465 11.1895 16.8749 11.2514 17.4459 11.4879C18.0169 11.7244 18.505 12.1249 18.8484 12.6388C19.1917 13.1527 19.375 13.7569 19.375 14.375C19.374 15.2035 19.0445 15.9978 18.4586 16.5836C17.8728 17.1695 17.0785 17.499 16.25 17.5Z" fill="#F9F9F9"/>
</svg>
