<svg width="48" height="48" viewBox="0 0 48 48" fill="none" xmlns="http://www.w3.org/2000/svg">
<path d="M8.23731 0C4.77703 0 1.9624 2.81463 1.9624 6.27491C1.9624 9.73518 4.77703 12.5498 8.23731 12.5498C11.6976 12.5498 14.5122 9.73518 14.5122 6.27491C14.5122 2.81463 11.6875 0 8.23731 0Z" fill="#F9F9F9"/>
<path d="M11.2536 26.3909C10.84 26.9155 10.9207 27.6721 11.4453 28.0958C11.6672 28.2774 11.9295 28.3581 12.2019 28.3581C12.555 28.3581 12.9081 28.2068 13.1502 27.9042C13.5638 27.3796 13.4831 26.6229 12.9585 26.1992C12.4239 25.7755 11.6672 25.8663 11.2536 26.3909Z" fill="#F9F9F9"/>
<path d="M5.49333 18.3506C4.89812 18.6431 4.64591 19.3695 4.93847 19.9647C5.15033 20.3985 5.57403 20.6507 6.02801 20.6507C6.2096 20.6507 6.3811 20.6103 6.56269 20.5296C7.16798 20.2371 7.4101 19.5107 7.11754 18.9155C6.82498 18.3102 6.09862 18.058 5.49333 18.3506Z" fill="#F9F9F9"/>
<path d="M3.56648 21.6999C2.91074 21.5485 2.26509 21.9622 2.11377 22.6078C1.96245 23.2635 2.37607 23.9092 3.02172 24.0605C3.11251 24.0807 3.2033 24.0908 3.2941 24.0908C3.84895 24.0908 4.34328 23.7074 4.47443 23.1526C4.62575 22.4968 4.21213 21.8512 3.56648 21.6999Z" fill="#F9F9F9"/>
<path d="M3.52586 26.2093C3.00127 26.623 2.92057 27.3897 3.33419 27.9143C3.5763 28.2169 3.92939 28.3682 4.28248 28.3682C4.54478 28.3682 4.81716 28.2774 5.0391 28.1059C5.56369 27.6923 5.6444 26.9256 5.23078 26.401C4.80707 25.8764 4.04036 25.7957 3.52586 26.2093Z" fill="#F9F9F9"/>
<path d="M13.1603 24.0706C13.2511 24.0706 13.3419 24.0605 13.4327 24.0403C14.0884 23.889 14.492 23.2434 14.3406 22.5876C14.1893 21.9319 13.5336 21.5284 12.8879 21.6797C12.2423 21.831 11.8287 22.4867 11.98 23.1324C12.1212 23.6873 12.6155 24.0706 13.1603 24.0706Z" fill="#F9F9F9"/>
<path d="M10.941 18.3405C10.3357 18.0479 9.60939 18.3001 9.32692 18.9054C9.03436 19.5107 9.28656 20.227 9.89186 20.5195C10.0634 20.6002 10.2349 20.6406 10.4165 20.6406C10.8704 20.6406 11.3042 20.3884 11.506 19.9546C11.7985 19.3594 11.5463 18.633 10.941 18.3405Z" fill="#F9F9F9"/>
<path d="M8.24737 27.8537C8.23728 27.8537 8.23728 27.8537 8.22719 27.8537C7.90437 27.8537 7.59163 27.9849 7.36969 28.2068C7.14775 28.4288 7.0166 28.7415 7.0166 29.0643C7.0166 29.3871 7.14775 29.6999 7.36969 29.9218C7.59163 30.1438 7.90437 30.2749 8.22719 30.2749H8.23728H8.24737C8.9132 30.2749 9.45796 29.7301 9.45796 29.0643C9.45796 28.3884 8.9132 27.8537 8.24737 27.8537Z" fill="#F9F9F9"/>
<path d="M8.23731 35.4502C4.77703 35.4502 1.9624 38.2648 1.9624 41.7251C1.9624 45.1854 4.77703 48 8.23731 48C11.6976 48 14.5122 45.1854 14.5122 41.7251C14.5122 38.2648 11.6875 35.4502 8.23731 35.4502Z" fill="#F9F9F9"/>
<path d="M20.7165 7.16267H44.8274C45.4932 7.16267 46.038 6.6179 46.038 5.95208C46.038 5.28625 45.4932 4.74149 44.8274 4.74149H20.7165C20.0506 4.74149 19.5059 5.28625 19.5059 5.95208C19.5059 6.6179 20.0405 7.16267 20.7165 7.16267Z" fill="#F9F9F9"/>
<path d="M20.3834 25.2106C20.7063 25.2106 21.019 25.0794 21.2409 24.8575C21.4629 24.6356 21.594 24.3228 21.594 24C21.594 23.6772 21.4629 23.3644 21.2409 23.1425C21.019 22.9205 20.7063 22.7894 20.3834 22.7894C20.0606 22.7894 19.7479 22.9205 19.5259 23.1425C19.304 23.3644 19.1729 23.6772 19.1729 24C19.1729 24.3228 19.304 24.6356 19.5259 24.8575C19.758 25.0794 20.0707 25.2106 20.3834 25.2106Z" fill="#F9F9F9"/>
<path d="M23.9951 24C23.9951 24.6658 24.5399 25.2106 25.2057 25.2106C25.8715 25.2106 26.4163 24.6658 26.4163 24C26.4163 23.3342 25.8715 22.7894 25.2057 22.7894C24.5399 22.7894 23.9951 23.3342 23.9951 24Z" fill="#F9F9F9"/>
<path d="M28.8174 24C28.8174 24.6658 29.3621 25.2106 30.028 25.2106C30.6938 25.2106 31.2386 24.6658 31.2386 24C31.2386 23.3342 30.6938 22.7894 30.028 22.7894C29.3621 22.7894 28.8174 23.3342 28.8174 24Z" fill="#F9F9F9"/>
<path d="M33.6396 24C33.6396 24.6658 34.1844 25.2106 34.8502 25.2106C35.5161 25.2106 36.0608 24.6658 36.0608 24C36.0608 23.3342 35.5161 22.7894 34.8502 22.7894C34.1844 22.7894 33.6396 23.3342 33.6396 24Z" fill="#F9F9F9"/>
<path d="M38.4619 24C38.4619 24.6658 39.0067 25.2106 39.6725 25.2106C40.3383 25.2106 40.8831 24.6658 40.8831 24C40.8831 23.3342 40.3383 22.7894 39.6725 22.7894C39.0067 22.7894 38.4619 23.3342 38.4619 24Z" fill="#F9F9F9"/>
<path d="M44.4948 22.7894C44.1719 22.7894 43.8592 22.9205 43.6373 23.1425C43.4153 23.3644 43.2842 23.6772 43.2842 24C43.2842 24.3228 43.4153 24.6356 43.6373 24.8575C43.8592 25.0794 44.1719 25.2106 44.4948 25.2106C44.8176 25.2106 45.1303 25.0794 45.3523 24.8575C45.5742 24.6356 45.7054 24.3228 45.7054 24C45.7054 23.6772 45.5742 23.3644 45.3523 23.1425C45.1303 22.9205 44.8176 22.7894 44.4948 22.7894Z" fill="#F9F9F9"/>
<path d="M44.4944 40.5145H20.3834C19.7176 40.5145 19.1729 41.0593 19.1729 41.7251C19.1729 42.3909 19.7176 42.9357 20.3834 42.9357H44.4944C45.1602 42.9357 45.705 42.3909 45.705 41.7251C45.705 41.0593 45.1602 40.5145 44.4944 40.5145Z" fill="#F9F9F9"/>
</svg>
