<svg width="40" height="40" viewBox="0 0 40 40" fill="none" xmlns="http://www.w3.org/2000/svg">
<g clip-path="url(#clip0_644_27734)">
<path d="M28.366 17.3283C28.2373 17.3283 28.1052 17.3468 27.9731 17.3831L26.4801 17.7943L24.93 14.0178C24.4907 12.9479 23.1925 12.0774 22.036 12.0774H7.52714C6.37054 12.0774 5.07245 12.9479 4.6333 14.0178L3.0851 17.7891L1.61058 17.3829C1.47863 17.3467 1.34653 17.3282 1.21781 17.3282C0.512104 17.3282 0 17.8673 0 18.6098V19.4899C0 20.3568 0.705408 21.0622 1.57227 21.0622H1.74121L1.49096 21.6717C1.08292 22.6654 0.750762 24.3484 0.750762 25.4231V32.9255C0.750762 33.7924 1.45617 34.4978 2.32303 34.4978H4.37644C5.2433 34.4978 5.94871 33.7924 5.94871 32.9255V31.0521H23.6143V32.9255C23.6143 33.7924 24.3197 34.4978 25.1866 34.4978H27.2397C28.1065 34.4978 28.812 33.7924 28.812 32.9255V25.4232C28.812 24.3487 28.4798 22.6657 28.0718 21.6719L27.8215 21.0623H28.0114C28.8783 21.0623 29.5837 20.3569 29.5837 19.4901V18.61C29.5839 17.8674 29.0716 17.3283 28.366 17.3283ZM4.21219 20.2084L6.55739 14.4961C6.82012 13.8562 7.60097 13.3325 8.29273 13.3325H21.2704C21.9622 13.3325 22.743 13.856 23.0058 14.4961L25.351 20.2084C25.6135 20.8483 25.2626 21.372 24.5708 21.372H4.99246C4.30055 21.3719 3.94961 20.8483 4.21219 20.2084ZM9.44728 27.4337C9.44728 27.7797 9.16414 28.0625 8.81849 28.0625H4.36352C4.01757 28.0625 3.73458 27.7796 3.73458 27.4337V25.2958C3.73458 24.95 4.01757 24.667 4.36352 24.667H8.81849C9.16414 24.667 9.44728 24.95 9.44728 25.2958V27.4337ZM25.7863 27.4337C25.7863 27.7797 25.5032 28.0625 25.1575 28.0625H20.7025C20.3569 28.0625 20.0738 27.7796 20.0738 27.4337V25.2958C20.0738 24.95 20.3569 24.667 20.7025 24.667H25.1575C25.5032 24.667 25.7863 24.95 25.7863 25.2958V27.4337Z" fill="#F9F9F9"/>
<path d="M38.0333 5.50208H30.5866C29.5022 5.50208 28.6201 6.38435 28.6201 7.46859V14.9154C28.6201 15.9998 29.5024 16.8821 30.5866 16.8821H33.576V33.5958C33.576 34.0012 33.9045 34.3297 34.3099 34.3297C34.7153 34.3297 35.0438 34.0012 35.0438 33.5958V16.8823H38.0333C39.1177 16.8823 39.9999 16 39.9999 14.9156V7.46873C39.9999 6.38435 39.1177 5.50208 38.0333 5.50208ZM36.3467 11.6765C35.9184 12.0621 35.2876 12.2576 34.4718 12.2576H33.3934C33.264 12.2576 33.1586 12.3631 33.1586 12.4926V14.311C33.1586 14.5086 32.9979 14.6692 32.8003 14.6692H31.9836C31.7859 14.6692 31.6254 14.5084 31.6254 14.311V8.07375C31.6254 7.87604 31.7861 7.71532 31.9836 7.71532H34.0409C35.4037 7.71532 35.9124 7.92066 36.3304 8.27542C36.7714 8.64955 36.9947 9.22257 36.9947 9.97891C36.9946 10.7179 36.7768 11.2889 36.3467 11.6765Z" fill="#F9F9F9"/>
<path d="M35.1795 9.22125C34.9805 9.07095 34.6284 8.99463 34.1331 8.99463H33.3935C33.2641 8.99463 33.1587 9.10001 33.1587 9.22933V10.7238C33.1587 10.8531 33.2641 10.9585 33.3935 10.9585H33.8367C33.9994 10.9585 34.2625 10.9465 34.4229 10.9316C34.5786 10.9174 35.0182 10.8537 35.1795 10.7319C35.3731 10.5854 35.4713 10.3321 35.4713 9.97906C35.4713 9.62269 35.3731 9.36774 35.1795 9.22125Z" fill="#F9F9F9"/>
</g>
<defs>
<clipPath id="clip0_644_27734">
<rect width="40" height="40" fill="white"/>
</clipPath>
</defs>
</svg>
