<svg width="48" height="48" viewBox="0 0 48 48" fill="none" xmlns="http://www.w3.org/2000/svg">
<path d="M7.82777 14.3448C7.15504 13.9563 6.29518 14.187 5.907 14.8594C5.51845 15.5321 5.74916 16.3919 6.42152 16.7801C7.09389 17.1687 7.95411 16.938 8.3423 16.2656C8.73085 15.5929 8.50013 14.733 7.82777 14.3448Z" fill="#F9F9F9"/>
<path d="M43.687 11.3441H42.2808V9.93787C42.2808 9.16077 41.652 8.53162 40.8745 8.53162C40.0974 8.53162 39.4683 9.16077 39.4683 9.93787V11.3441H38.062C37.2849 11.3441 36.6558 11.9733 36.6558 12.7504C36.6558 13.5278 37.2849 14.1566 38.062 14.1566H39.4683V15.5629C39.4683 16.34 40.0974 16.9691 40.8745 16.9691C41.652 16.9691 42.2808 16.34 42.2808 15.5629V14.1566H43.687C44.4641 14.1566 45.0933 13.5278 45.0933 12.7504C45.0933 11.9733 44.4641 11.3441 43.687 11.3441Z" fill="#F9F9F9"/>
<path d="M5.71875 7.03161C5.71875 7.80908 6.34753 8.43786 7.125 8.43786C7.9021 8.43786 8.53125 7.80908 8.53125 7.03161V5.62536H9.93749C10.7146 5.62536 11.3437 4.99658 11.3437 4.21911C11.3437 3.44201 10.7146 2.81286 9.93749 2.81286H8.53125V1.40662C8.53125 0.629516 7.9021 0.000366211 7.125 0.000366211C6.34753 0.000366211 5.71875 0.629516 5.71875 1.40662V2.81286H4.3125C3.5354 2.81286 2.90625 3.44201 2.90625 4.21911C2.90625 4.99658 3.5354 5.62536 4.3125 5.62536H5.71875V7.03161Z" fill="#F9F9F9"/>
<path d="M14.6014 2.62902C15.9399 5.30675 16.6833 8.26281 16.8704 11.2504H31.1299C31.3167 8.26317 32.0601 5.30675 33.3986 2.62902L33.6952 2.03576C33.9659 1.49487 33.86 0.841182 33.4316 0.412715C33.0046 -0.0157513 32.3509 -0.121586 31.8085 0.149044L27.0899 2.50817L24.9941 0.412715C24.4448 -0.136601 23.5549 -0.136601 23.0056 0.412715L20.9101 2.50817L16.1915 0.148677C15.6477 -0.121586 14.9984 -0.0172161 14.5684 0.412715C14.14 0.840815 14.0341 1.4945 14.3048 2.03576L14.6014 2.62902Z" fill="#F9F9F9"/>
<path d="M32.6096 14.1566H15.3896L9.89904 20.8019C7.20337 24.0663 5.71875 28.292 5.71875 32.5316C5.71875 41.9286 12.8943 48 23.9996 48C35.1053 48 42.2808 41.9286 42.2808 32.5316C42.2808 28.292 40.7962 24.16 38.0991 20.8956L32.6096 14.1566ZM23.9846 28.7248C26.3111 28.7248 28.2033 30.6171 28.2033 32.9436C28.2033 34.7688 27.0315 36.3116 25.4059 36.8983V38.1566C25.4059 38.9337 24.7771 39.5628 23.9996 39.5628C23.2225 39.5628 22.5937 38.9337 22.5937 38.1566V36.9078C20.9524 36.3296 19.7659 34.7798 19.7659 32.9436C19.7659 32.1661 20.395 31.5373 21.1721 31.5373C21.9496 31.5373 22.5784 32.1661 22.5784 32.9436C22.5784 33.7196 23.209 34.3498 23.9846 34.3498C24.7606 34.3498 25.3909 33.7196 25.3909 32.9436C25.3909 32.1676 24.7606 31.5373 23.9846 31.5373C21.6584 31.5373 19.7659 29.6448 19.7659 27.3186C19.7659 25.482 20.9524 23.9326 22.5937 23.3544V21.2816C22.5937 20.5045 23.2225 19.8754 23.9996 19.8754C24.7771 19.8754 25.4059 20.5045 25.4059 21.2816V23.3639C27.0315 23.9506 28.2033 25.4934 28.2033 27.3186C28.2033 28.0961 27.5746 28.7248 26.7971 28.7248C26.02 28.7248 25.3909 28.0961 25.3909 27.3186C25.3909 26.543 24.7606 25.9123 23.9846 25.9123C23.209 25.9123 22.5784 26.543 22.5784 27.3186C22.5784 28.0946 23.2086 28.7248 23.9846 28.7248Z" fill="#F9F9F9"/>
</svg>
