<svg width="26" height="26" viewBox="0 0 26 26" fill="none" xmlns="http://www.w3.org/2000/svg">
<path d="M20.8001 5.19995H5.2001C3.76416 5.19995 2.6001 6.36401 2.6001 7.79995V18.2C2.6001 19.6359 3.76416 20.8 5.2001 20.8H20.8001C22.236 20.8 23.4001 19.6359 23.4001 18.2V7.79995C23.4001 6.36401 22.236 5.19995 20.8001 5.19995Z" stroke="white" stroke-width="2"/>
<path d="M7.8 11.7C8.51797 11.7 9.1 11.1179 9.1 10.4C9.1 9.68201 8.51797 9.09998 7.8 9.09998C7.08203 9.09998 6.5 9.68201 6.5 10.4C6.5 11.1179 7.08203 11.7 7.8 11.7Z" fill="white"/>
<path d="M13.0002 14.3C13.7182 14.3 14.3002 13.7179 14.3002 13C14.3002 12.282 13.7182 11.7 13.0002 11.7C12.2822 11.7 11.7002 12.282 11.7002 13C11.7002 13.7179 12.2822 14.3 13.0002 14.3Z" fill="white"/>
<path d="M18.1999 11.7C18.9179 11.7 19.4999 11.1179 19.4999 10.4C19.4999 9.68201 18.9179 9.09998 18.1999 9.09998C17.4819 9.09998 16.8999 9.68201 16.8999 10.4C16.8999 11.1179 17.4819 11.7 18.1999 11.7Z" fill="white"/>
<path d="M5.2002 18.2L10.4002 13L15.6002 18.2L20.8002 13" stroke="white" stroke-width="2" stroke-linecap="round" stroke-linejoin="round"/>
</svg>
