<svg width="26" height="26" viewBox="0 0 26 26" fill="none" xmlns="http://www.w3.org/2000/svg">
<path d="M13.0001 1.30005C7.25605 1.30005 2.6001 5.956 2.6001 11.7C2.6001 18.525 13.0001 24.7 13.0001 24.7C13.0001 24.7 23.4001 18.525 23.4001 11.7C23.4001 5.956 18.7441 1.30005 13.0001 1.30005ZM13.0001 15.6C10.846 15.6 9.1001 13.8541 9.1001 11.7C9.1001 9.54595 10.846 7.80005 13.0001 7.80005C15.1542 7.80005 16.9001 9.54595 16.9001 11.7C16.9001 13.8541 15.1542 15.6 13.0001 15.6Z" fill="white"/>
<path d="M12.9998 13.65C14.0768 13.65 14.9498 12.777 14.9498 11.7C14.9498 10.623 14.0768 9.75 12.9998 9.75C11.9228 9.75 11.0498 10.623 11.0498 11.7C11.0498 12.777 11.9228 13.65 12.9998 13.65Z" fill="white"/>
<path d="M18.2002 10.4L20.8002 13L18.2002 15.6" stroke="white" stroke-width="2" stroke-linecap="round" stroke-linejoin="round"/>
</svg>
