<svg width="16" height="16" viewBox="0 0 16 16" fill="none" xmlns="http://www.w3.org/2000/svg">
<rect width="16" height="16" rx="3.2" fill="#2C7FFF"/>
<path d="M12.1463 6.12706C12.1463 6.75745 12.0016 7.72482 11.7123 8.25187C11.4229 8.76858 10.9785 9.18712 10.3792 9.50749C9.77977 9.82785 9.03569 9.98803 8.14694 9.98803H6.24469V11.5526V12.858C6.24469 13.1442 6.01268 13.3762 5.72649 13.3762H4.37122C4.08503 13.3762 3.85303 13.1442 3.85303 12.858V3.23165C3.85303 2.8959 4.12521 2.62372 4.46096 2.62372H8.14694C9.01502 2.62372 9.74876 2.77357 10.3482 3.07326C10.9475 3.37296 11.3971 3.78633 11.6968 4.31338C11.9965 4.84043 12.1463 5.44499 12.1463 6.12706ZM7.94542 8.07415C9.13212 8.09713 9.32644 7.54655 9.52076 7.25507C9.70816 6.9312 9.70816 6.5611 9.70816 6.12706C9.70816 5.69301 9.54208 5.22566 9.29405 4.98797C9.04603 4.75028 8.4518 4.5686 7.94542 4.5686H6.17991V8.07415H7.94542Z" fill="#EEF6FF"/>
</svg>
