<svg width="392" height="513" viewBox="0 0 392 513" fill="none" xmlns="http://www.w3.org/2000/svg">
<g opacity="0.6">
<rect x="313" y="406" width="5" height="8" fill="#BADCFF"/>
<rect x="313" y="344" width="5" height="8" fill="#BADCFF"/>
<rect x="313" y="322" width="5" height="8" fill="#BADCFF"/>
<rect x="330" y="323" width="5" height="8" fill="#BADCFF"/>
<rect x="330" y="339" width="5" height="8" fill="#BADCFF"/>
<rect x="314" y="364" width="5" height="9" fill="#BADCFF"/>
<rect x="307" y="315" width="47" height="200" fill="#E9F4FF"/>
<rect x="314" y="428" width="5" height="8" fill="#BADCFF"/>
<rect x="330" y="480" width="5" height="8" fill="#BADCFF"/>
<rect x="330" y="464" width="5" height="8" fill="#BADCFF"/>
<rect x="313" y="448" width="5" height="8" fill="#BADCFF"/>
<rect x="313" y="490" width="5" height="8" fill="#BADCFF"/>
<rect x="330" y="496" width="5" height="8" fill="#BADCFF"/>
<rect x="330" y="448" width="5" height="8" fill="#BADCFF"/>
<rect x="313" y="470" width="5" height="8" fill="#83C2FF"/>
<rect x="330" y="401" width="5" height="8" fill="#83C2FF"/>
<rect x="330" y="432" width="5" height="8" fill="#BADCFF"/>
<rect x="330" y="416" width="5" height="8" fill="#BADCFF"/>
<rect x="314" y="386" width="5" height="8" fill="#BADCFF"/>
<rect x="330" y="385" width="5" height="8" fill="#BADCFF"/>
<rect x="330" y="370" width="5" height="8" fill="#BADCFF"/>
<rect x="330" y="354" width="5" height="8" fill="#83C2FF"/>
<rect x="365" y="233" width="75" height="282" fill="#E9F4FF"/>
<rect x="372" y="385" width="5" height="8" fill="#BADCFF"/>
<rect x="371" y="400" width="5" height="8" fill="#BADCFF"/>
<rect x="372" y="353" width="5" height="8" fill="#BADCFF"/>
<rect x="372" y="338" width="5" height="8" fill="#BADCFF"/>
<rect x="372" y="306" width="5" height="8" fill="#BADCFF"/>
<rect x="371" y="291" width="5" height="8" fill="#BADCFF"/>
<rect x="372" y="275" width="5" height="8" fill="#BADCFF"/>
<rect x="387" y="288" width="5" height="8" fill="#BADCFF"/>
<rect x="386" y="318" width="5" height="8" fill="#BADCFF"/>
<rect x="386" y="333" width="5" height="8" fill="#BADCFF"/>
<rect x="386" y="378" width="5" height="8" fill="#BADCFF"/>
<rect x="386" y="348" width="5" height="8" fill="#BADCFF"/>
<rect x="372" y="448" width="5" height="8" fill="#BADCFF"/>
<rect x="371" y="479" width="5" height="8" fill="#BADCFF"/>
<rect x="371" y="432" width="5" height="8" fill="#BADCFF"/>
<rect x="386" y="438" width="5" height="8" fill="#BADCFF"/>
<rect x="386" y="454" width="5" height="8" fill="#BADCFF"/>
<rect x="386" y="468" width="5" height="8" fill="#BADCFF"/>
<rect x="386" y="483" width="5" height="8" fill="#BADCFF"/>
<rect x="386" y="498" width="5" height="8" fill="#BADCFF"/>
<rect x="371" y="416" width="5" height="8" fill="#BADCFF"/>
<rect x="371" y="244" width="5" height="8" fill="#BADCFF"/>
<rect x="386" y="273" width="5" height="8" fill="#BADCFF"/>
<rect x="386" y="393" width="5" height="8" fill="#BADCFF"/>
<rect x="385" y="304" width="5" height="8" fill="#BADCFF"/>
<rect x="385" y="244" width="5" height="8" fill="#BADCFF"/>
<rect x="372" y="463" width="5" height="8" fill="#83C2FF"/>
<rect x="372" y="494" width="5" height="8" fill="#83C2FF"/>
<rect x="372" y="369" width="5" height="8" fill="#83C2FF"/>
<rect x="386" y="363" width="5" height="8" fill="#83C2FF"/>
<rect x="386" y="423" width="5" height="8" fill="#83C2FF"/>
<rect x="386" y="408" width="5" height="8" fill="#83C2FF"/>
<rect x="386" y="257" width="5" height="8" fill="#BADCFF"/>
<rect x="371" y="323" width="5" height="8" fill="#83C2FF"/>
<rect x="372" y="259" width="5" height="8" fill="#83C2FF"/>
<rect x="112" y="466" width="5" height="8" fill="#83C2FF"/>
<rect x="112" y="432" width="5" height="8" fill="#83C2FF"/>
<rect x="112" y="415" width="5" height="8" fill="#83C2FF"/>
<rect x="112" y="364" width="5" height="8" fill="#83C2FF"/>
<rect x="112" y="345" width="5" height="8" fill="#83C2FF"/>
<rect x="145" y="312" width="83" height="203" fill="#E9F4FF"/>
<rect x="152" y="320" width="5" height="9" fill="#BADCFF"/>
<rect x="182" y="319" width="5" height="9" fill="#BADCFF"/>
<rect x="197" y="340" width="5" height="9" fill="#BADCFF"/>
<rect x="211" y="319" width="5" height="9" fill="#BADCFF"/>
<rect x="182" y="357" width="5" height="9" fill="#BADCFF"/>
<rect x="182" y="452" width="5" height="8" fill="#BADCFF"/>
<rect x="182" y="471" width="5" height="8" fill="#BADCFF"/>
<rect x="167" y="464" width="5" height="8" fill="#BADCFF"/>
<rect x="167" y="482" width="5" height="8" fill="#BADCFF"/>
<rect x="152" y="488" width="5" height="8" fill="#BADCFF"/>
<rect x="167" y="501" width="5" height="8" fill="#BADCFF"/>
<rect x="152" y="510" width="5" height="4" fill="#BADCFF"/>
<rect x="197" y="477" width="5" height="8" fill="#BADCFF"/>
<rect x="197" y="496" width="5" height="8" fill="#BADCFF"/>
<rect x="212" y="488" width="5" height="8" fill="#BADCFF"/>
<rect x="212" y="467" width="5" height="8" fill="#BADCFF"/>
<rect x="212" y="509" width="5" height="5" fill="#BADCFF"/>
<rect x="167" y="447" width="5" height="8" fill="#83C2FF"/>
<rect x="167" y="357" width="5" height="8" fill="#83C2FF"/>
<rect x="152" y="363" width="5" height="8" fill="#BADCFF"/>
<rect x="152" y="425" width="5" height="8" fill="#BADCFF"/>
<rect x="152" y="405" width="5" height="8" fill="#BADCFF"/>
<rect x="182" y="433" width="5" height="8" fill="#BADCFF"/>
<rect x="152" y="445" width="5" height="8" fill="#BADCFF"/>
<rect x="167" y="429" width="5" height="8" fill="#BADCFF"/>
<rect x="167" y="410" width="5" height="8" fill="#BADCFF"/>
<rect x="167" y="392" width="5" height="8" fill="#BADCFF"/>
<rect x="167" y="374" width="5" height="8" fill="#BADCFF"/>
<rect x="167" y="337" width="5" height="8" fill="#BADCFF"/>
<rect x="152" y="467" width="5" height="8" fill="#BADCFF"/>
<rect x="197" y="380" width="5" height="8" fill="#BADCFF"/>
<rect x="152" y="341" width="5" height="8" fill="#BADCFF"/>
<rect x="211" y="341" width="5" height="8" fill="#BADCFF"/>
<rect x="197" y="417" width="5" height="8" fill="#BADCFF"/>
<rect x="182" y="414" width="5" height="8" fill="#BADCFF"/>
<rect x="197" y="459" width="5" height="8" fill="#BADCFF"/>
<rect x="206" y="421" width="5" height="8" fill="#BADCFF"/>
<rect x="197" y="398" width="5" height="8" fill="#BADCFF"/>
<rect x="211" y="404" width="5" height="8" fill="#BADCFF"/>
<rect x="197" y="437" width="5" height="8" fill="#BADCFF"/>
<rect x="212" y="362" width="5" height="8" fill="#BADCFF"/>
<rect x="182" y="395" width="5" height="8" fill="#BADCFF"/>
<rect x="167" y="320" width="5" height="8" fill="#BADCFF"/>
<rect x="182" y="378" width="5" height="8" fill="#BADCFF"/>
<rect x="211" y="383" width="5" height="8" fill="#83C2FF"/>
<rect x="197" y="360" width="5" height="8" fill="#83C2FF"/>
<rect x="182" y="489" width="5" height="8" fill="#83C2FF"/>
<rect x="182" y="508" width="5" height="6" fill="#83C2FF"/>
<rect x="211" y="425" width="5" height="8" fill="#83C2FF"/>
<rect x="213" y="447" width="5" height="8" fill="#83C2FF"/>
<rect x="197" y="321" width="5" height="8" fill="#83C2FF"/>
<rect x="206" y="340" width="5" height="8" fill="#83C2FF"/>
<rect x="182" y="340" width="5" height="8" fill="#83C2FF"/>
<rect x="152" y="384" width="5" height="8" fill="#83C2FF"/>
<rect x="-30" y="345" width="77" height="170" fill="#E9F4FF"/>
<rect x="7" y="351" width="5" height="9" fill="#BADCFF"/>
<rect x="22" y="351" width="5" height="9" fill="#BADCFF"/>
<rect x="37" y="351" width="5" height="9" fill="#BADCFF"/>
<rect x="37" y="370" width="5" height="9" fill="#BADCFF"/>
<rect x="22" y="410" width="5" height="8" fill="#BADCFF"/>
<rect x="7" y="506" width="5" height="8" fill="#BADCFF"/>
<rect x="22" y="506" width="5" height="8" fill="#BADCFF"/>
<rect x="22" y="488" width="5" height="8" fill="#BADCFF"/>
<rect x="7" y="490" width="5" height="8" fill="#BADCFF"/>
<rect x="7" y="472" width="5" height="8" fill="#BADCFF"/>
<rect x="7" y="438" width="5" height="8" fill="#BADCFF"/>
<rect x="37" y="388" width="5" height="8" fill="#BADCFF"/>
<rect x="7" y="403" width="5" height="8" fill="#BADCFF"/>
<rect x="7" y="369" width="5" height="8" fill="#BADCFF"/>
<rect x="7" y="455" width="5" height="8" fill="#BADCFF"/>
<rect x="22" y="469" width="5" height="8" fill="#BADCFF"/>
<rect x="37" y="478" width="5" height="8" fill="#BADCFF"/>
<rect x="37" y="496" width="5" height="8" fill="#BADCFF"/>
<rect x="37" y="460" width="5" height="8" fill="#BADCFF"/>
<rect x="37" y="442" width="5" height="8" fill="#BADCFF"/>
<rect x="30" y="423" width="5" height="8" fill="#BADCFF"/>
<rect x="22" y="391" width="5" height="8" fill="#BADCFF"/>
<rect x="7" y="386" width="5" height="8" fill="#BADCFF"/>
<rect x="7" y="421" width="5" height="8" fill="#83C2FF"/>
<rect x="37" y="406" width="5" height="8" fill="#83C2FF"/>
<rect x="37" y="424" width="5" height="8" fill="#83C2FF"/>
<rect x="22" y="430" width="5" height="8" fill="#83C2FF"/>
<rect x="22" y="450" width="5" height="8" fill="#83C2FF"/>
<rect x="22" y="372" width="5" height="8" fill="#83C2FF"/>
<rect x="234" y="213" width="67" height="302" fill="#E9F4FF"/>
<rect x="283" y="496" width="5" height="8" fill="#BADCFF"/>
<rect x="255" y="472" width="5" height="8" fill="#BADCFF"/>
<rect x="255" y="493" width="5" height="8" fill="#BADCFF"/>
<rect x="241" y="434" width="5" height="8" fill="#BADCFF"/>
<rect x="241" y="418" width="5" height="8" fill="#BADCFF"/>
<rect x="241" y="401" width="5" height="8" fill="#BADCFF"/>
<rect x="241" y="385" width="5" height="8" fill="#BADCFF"/>
<rect x="241" y="368" width="5" height="8" fill="#BADCFF"/>
<rect x="255" y="430" width="5" height="8" fill="#BADCFF"/>
<rect x="255" y="409" width="5" height="8" fill="#BADCFF"/>
<rect x="255" y="388" width="5" height="8" fill="#BADCFF"/>
<rect x="269" y="367" width="5" height="8" fill="#BADCFF"/>
<rect x="269" y="388" width="5" height="8" fill="#BADCFF"/>
<rect x="269" y="409" width="5" height="8" fill="#BADCFF"/>
<rect x="269" y="430" width="5" height="8" fill="#BADCFF"/>
<rect x="269" y="451" width="5" height="8" fill="#BADCFF"/>
<rect x="269" y="472" width="5" height="8" fill="#BADCFF"/>
<rect x="283" y="479" width="5" height="8" fill="#BADCFF"/>
<rect x="255" y="367" width="5" height="8" fill="#BADCFF"/>
<rect x="269" y="493" width="5" height="8" fill="#BADCFF"/>
<rect x="255" y="451" width="5" height="8" fill="#BADCFF"/>
<rect x="241" y="352" width="5" height="8" fill="#BADCFF"/>
<rect x="240" y="335" width="5" height="8" fill="#BADCFF"/>
<rect x="284" y="341" width="5" height="8" fill="#BADCFF"/>
<rect x="284" y="427" width="5" height="8" fill="#BADCFF"/>
<rect x="284" y="410" width="5" height="8" fill="#BADCFF"/>
<rect x="283" y="445" width="5" height="8" fill="#BADCFF"/>
<rect x="284" y="392" width="5" height="8" fill="#BADCFF"/>
<rect x="283" y="375" width="5" height="8" fill="#BADCFF"/>
<rect x="241" y="467" width="5" height="8" fill="#83C2FF"/>
<rect x="241" y="484" width="5" height="8" fill="#83C2FF"/>
<rect x="241" y="500" width="5" height="8" fill="#83C2FF"/>
<rect x="241" y="451" width="5" height="8" fill="#83C2FF"/>
<rect x="269" y="325" width="5" height="8" fill="#83C2FF"/>
<rect x="283" y="358" width="5" height="8" fill="#83C2FF"/>
<rect x="283" y="461" width="5" height="8" fill="#83C2FF"/>
<rect x="269" y="346" width="5" height="8" fill="#BADCFF"/>
<rect x="241" y="286" width="5" height="8" fill="#83C2FF"/>
<rect x="255" y="325" width="5" height="8" fill="#83C2FF"/>
<rect x="283" y="289" width="5" height="8" fill="#83C2FF"/>
<rect x="269" y="240" width="5" height="8" fill="#83C2FF"/>
<rect x="283" y="220" width="5" height="8" fill="#83C2FF"/>
<rect x="269" y="220" width="5" height="8" fill="#83C2FF"/>
<rect x="283" y="324" width="5" height="8" fill="#BADCFF"/>
<rect x="283" y="306" width="5" height="8" fill="#BADCFF"/>
<rect x="269" y="283" width="5" height="8" fill="#BADCFF"/>
<rect x="269" y="262" width="5" height="8" fill="#BADCFF"/>
<rect x="240" y="269" width="5" height="8" fill="#BADCFF"/>
<rect x="241" y="253" width="5" height="8" fill="#BADCFF"/>
<rect x="283" y="254" width="5" height="8" fill="#BADCFF"/>
<rect x="283" y="237" width="5" height="8" fill="#BADCFF"/>
<rect x="283" y="272" width="5" height="8" fill="#BADCFF"/>
<rect x="255" y="241" width="5" height="8" fill="#BADCFF"/>
<rect x="255" y="262" width="5" height="8" fill="#BADCFF"/>
<rect x="255" y="283" width="5" height="8" fill="#BADCFF"/>
<rect x="241" y="236" width="5" height="8" fill="#BADCFF"/>
<rect x="240" y="220" width="5" height="8" fill="#BADCFF"/>
<rect x="255" y="220" width="5" height="8" fill="#BADCFF"/>
<rect x="240" y="319" width="5" height="8" fill="#BADCFF"/>
<rect x="240" y="302" width="5" height="8" fill="#BADCFF"/>
<rect x="255" y="304" width="5" height="8" fill="#BADCFF"/>
<rect x="255" y="346" width="5" height="8" fill="#BADCFF"/>
<rect x="269" y="304" width="5" height="8" fill="#BADCFF"/>
<rect x="114" y="450" width="5" height="8" fill="#BADCFF"/>
<rect x="114" y="380" width="5" height="8" fill="#BADCFF"/>
<rect x="114" y="398" width="5" height="9" fill="#BADCFF"/>
<rect x="106" y="201" width="33" height="314" fill="#E9F4FF"/>
<rect x="114" y="484" width="5" height="8" fill="#BADCFF"/>
<rect x="114" y="243" width="5" height="8" fill="#BADCFF"/>
<rect x="113" y="330" width="5" height="8" fill="#BADCFF"/>
<rect x="114" y="311" width="5" height="8" fill="#BADCFF"/>
<rect x="114" y="501" width="5" height="8" fill="#BADCFF"/>
<rect x="114" y="292" width="5" height="8" fill="#BADCFF"/>
<rect x="114" y="278" width="5" height="8" fill="#BADCFF"/>
<rect x="114" y="259" width="5" height="8" fill="#BADCFF"/>
<rect x="114" y="208" width="5" height="8" fill="#BADCFF"/>
<rect x="114" y="225" width="5" height="8" fill="#BADCFF"/>
<rect x="59" y="447" width="5" height="8" fill="#BADCFF"/>
<rect x="59" y="368" width="5" height="8" fill="#BADCFF"/>
<rect x="59" y="388" width="5" height="9" fill="#BADCFF"/>
<rect x="53" y="341" width="47" height="174" fill="#E9F4FF"/>
<rect x="59" y="466" width="5" height="8" fill="#BADCFF"/>
<rect x="59" y="486" width="5" height="8" fill="#BADCFF"/>
<rect x="59" y="505" width="5" height="8" fill="#BADCFF"/>
<rect x="78" y="499" width="5" height="8" fill="#BADCFF"/>
<rect x="78" y="469" width="5" height="8" fill="#BADCFF"/>
<rect x="78" y="484" width="5" height="8" fill="#83C2FF"/>
<rect x="59" y="427" width="5" height="8" fill="#83C2FF"/>
<rect x="59" y="408" width="5" height="8" fill="#83C2FF"/>
<rect x="78" y="454" width="5" height="8" fill="#BADCFF"/>
<rect x="78" y="439" width="5" height="8" fill="#BADCFF"/>
<rect x="78" y="424" width="5" height="8" fill="#BADCFF"/>
<rect x="78" y="409" width="5" height="8" fill="#BADCFF"/>
<rect x="78" y="394" width="5" height="8" fill="#BADCFF"/>
<rect x="78" y="379" width="5" height="8" fill="#83C2FF"/>
<rect x="78" y="364" width="5" height="8" fill="#83C2FF"/>
<rect x="78" y="349" width="5" height="8" fill="#83C2FF"/>
<rect x="58" y="349" width="5" height="8" fill="#83C2FF"/>
</g>
<g filter="url(#filter0_f_1334_11647)">
<ellipse cx="191" cy="302" rx="194" ry="212" fill="white"/>
</g>
<defs>
<filter id="filter0_f_1334_11647" x="-203" y="-110" width="788" height="824" filterUnits="userSpaceOnUse" color-interpolation-filters="sRGB">
<feFlood flood-opacity="0" result="BackgroundImageFix"/>
<feBlend mode="normal" in="SourceGraphic" in2="BackgroundImageFix" result="shape"/>
<feGaussianBlur stdDeviation="100" result="effect1_foregroundBlur_1334_11647"/>
</filter>
</defs>
</svg>
