<svg width="1157" height="342" viewBox="0 0 1157 342" fill="none" xmlns="http://www.w3.org/2000/svg">
<g clip-path="url(#clip0_1090_17763)">
<g opacity="0.6">
<g clip-path="url(#clip1_1090_17763)">
<g opacity="0.6">
<rect x="834" y="311.622" width="5" height="8" fill="#D7EBFF"/>
<rect x="834" y="249.622" width="5" height="8" fill="#D7EBFF"/>
<rect x="834" y="227.622" width="5" height="8" fill="#D7EBFF"/>
<rect x="851" y="228.622" width="5" height="8" fill="#D7EBFF"/>
<rect x="851" y="244.622" width="5" height="8" fill="#D7EBFF"/>
<rect x="835" y="269.622" width="5" height="9" fill="#D7EBFF"/>
<rect x="828" y="220.622" width="47" height="200" fill="#F3F9FF"/>
<rect x="835" y="333.622" width="5" height="8" fill="#D7EBFF"/>
<rect x="851" y="306.622" width="5" height="8" fill="#BDDFFF"/>
<rect x="851" y="337.622" width="5" height="8" fill="#D7EBFF"/>
<rect x="851" y="321.622" width="5" height="8" fill="#D7EBFF"/>
<rect x="835" y="291.622" width="5" height="8" fill="#D7EBFF"/>
<rect x="851" y="290.622" width="5" height="8" fill="#D7EBFF"/>
<rect x="851" y="275.622" width="5" height="8" fill="#D7EBFF"/>
<rect x="851" y="259.622" width="5" height="8" fill="#BDDFFF"/>
<rect x="696" y="311.622" width="5" height="8" fill="#D7EBFF"/>
<rect x="696" y="249.622" width="5" height="8" fill="#D7EBFF"/>
<rect x="696" y="227.622" width="5" height="8" fill="#D7EBFF"/>
<rect x="713" y="228.622" width="5" height="8" fill="#D7EBFF"/>
<rect x="713" y="244.622" width="5" height="8" fill="#D7EBFF"/>
<rect x="697" y="269.622" width="5" height="9" fill="#D7EBFF"/>
<rect x="690" y="220.622" width="47" height="200" fill="#F3F9FF"/>
<rect x="697" y="333.622" width="5" height="8" fill="#D7EBFF"/>
<rect x="713" y="306.622" width="5" height="8" fill="#BDDFFF"/>
<rect x="713" y="337.622" width="5" height="8" fill="#D7EBFF"/>
<rect x="713" y="321.622" width="5" height="8" fill="#D7EBFF"/>
<rect x="697" y="291.622" width="5" height="8" fill="#D7EBFF"/>
<rect x="713" y="290.622" width="5" height="8" fill="#D7EBFF"/>
<rect x="713" y="275.622" width="5" height="8" fill="#D7EBFF"/>
<rect x="713" y="259.622" width="5" height="8" fill="#BDDFFF"/>
<rect x="879" y="272.622" width="74" height="147" fill="#F3F9FF"/>
<rect x="885" y="277.622" width="5" height="9" fill="#D7EBFF"/>
<rect x="904" y="278.622" width="5" height="9" fill="#D7EBFF"/>
<rect x="921" y="278.622" width="5" height="9" fill="#D7EBFF"/>
<rect x="939" y="278.622" width="5" height="9" fill="#D7EBFF"/>
<rect x="885" y="309.622" width="5" height="9" fill="#D7EBFF"/>
<rect x="885" y="325.622" width="5" height="8" fill="#BDDFFF"/>
<rect x="885" y="340.622" width="5" height="8" fill="#D7EBFF"/>
<rect x="903" y="341.622" width="5" height="8" fill="#D7EBFF"/>
<rect x="903" y="320.622" width="5" height="8" fill="#D7EBFF"/>
<rect x="940" y="314.622" width="5" height="8" fill="#D7EBFF"/>
<rect x="922" y="327.622" width="5" height="8" fill="#D7EBFF"/>
<rect x="904" y="299.622" width="5" height="8" fill="#D7EBFF"/>
<rect x="885" y="292.622" width="5" height="8" fill="#D7EBFF"/>
<rect x="940" y="331.622" width="5" height="8" fill="#D7EBFF"/>
<rect x="921" y="311.622" width="5" height="8" fill="#D7EBFF"/>
<rect x="921" y="294.622" width="5" height="8" fill="#BDDFFF"/>
<rect x="939" y="295.622" width="5" height="8" fill="#BDDFFF"/>
<rect x="1038" y="235.622" width="48" height="185" fill="#F3F9FF"/>
<rect x="1059" y="338.622" width="5" height="8" fill="#D7EBFF"/>
<rect x="1073" y="339.622" width="5" height="8" fill="#D7EBFF"/>
<rect x="1044" y="307.622" width="5" height="8" fill="#D7EBFF"/>
<rect x="1044" y="340.622" width="5" height="9" fill="#D7EBFF"/>
<rect x="1044" y="291.622" width="5" height="8" fill="#D7EBFF"/>
<rect x="1044" y="274.622" width="5" height="8" fill="#D7EBFF"/>
<rect x="1043" y="258.622" width="5" height="8" fill="#D7EBFF"/>
<rect x="1074" y="319.622" width="5" height="8" fill="#D7EBFF"/>
<rect x="1059" y="300.622" width="5" height="8" fill="#D7EBFF"/>
<rect x="1074" y="300.622" width="5" height="8" fill="#D7EBFF"/>
<rect x="1059" y="260.622" width="5" height="8" fill="#D7EBFF"/>
<rect x="1074" y="261.622" width="5" height="8" fill="#D7EBFF"/>
<rect x="1074" y="280.622" width="5" height="8" fill="#D7EBFF"/>
<rect x="1074" y="241.622" width="5" height="8" fill="#D7EBFF"/>
<rect x="1044" y="324.622" width="5" height="8" fill="#BDDFFF"/>
<rect x="1059" y="319.622" width="5" height="8" fill="#BDDFFF"/>
<rect x="1059" y="241.622" width="5" height="8" fill="#BDDFFF"/>
<rect x="1044" y="241.622" width="5" height="8" fill="#BDDFFF"/>
<rect x="1059" y="281.622" width="5" height="8" fill="#BDDFFF"/>
<rect x="1091" y="149.622" width="33" height="271" fill="#F3F9FF"/>
<rect x="1113" y="338.622" width="5" height="8" fill="#D7EBFF"/>
<rect x="1098" y="319.622" width="5" height="8" fill="#D7EBFF"/>
<rect x="1098" y="339.622" width="5" height="9" fill="#D7EBFF"/>
<rect x="1098" y="299.622" width="5" height="8" fill="#D7EBFF"/>
<rect x="1098" y="278.622" width="5" height="8" fill="#D7EBFF"/>
<rect x="1098" y="258.622" width="5" height="8" fill="#D7EBFF"/>
<rect x="1113" y="322.622" width="5" height="8" fill="#D7EBFF"/>
<rect x="1113" y="305.622" width="5" height="8" fill="#D7EBFF"/>
<rect x="1113" y="273.622" width="5" height="8" fill="#D7EBFF"/>
<rect x="1114" y="256.622" width="5" height="8" fill="#D7EBFF"/>
<rect x="1113" y="223.622" width="5" height="8" fill="#D7EBFF"/>
<rect x="1113" y="190.622" width="5" height="8" fill="#D7EBFF"/>
<rect x="1099" y="238.622" width="5" height="8" fill="#D7EBFF"/>
<rect x="1098" y="218.622" width="5" height="8" fill="#D7EBFF"/>
<rect x="1113" y="239.622" width="5" height="8" fill="#BDDFFF"/>
<rect x="1114" y="289.622" width="5" height="8" fill="#BDDFFF"/>
<rect x="1113" y="157.622" width="5" height="8" fill="#D7EBFF"/>
<rect x="1098" y="198.622" width="5" height="8" fill="#D7EBFF"/>
<rect x="1098" y="157.622" width="5" height="8" fill="#D7EBFF"/>
<rect x="1098" y="178.622" width="5" height="8" fill="#D7EBFF"/>
<rect x="1113" y="207.622" width="5" height="8" fill="#D7EBFF"/>
<rect x="1113" y="173.622" width="5" height="8" fill="#D7EBFF"/>
<rect x="1127" y="223.622" width="75" height="197" fill="#F3F9FF"/>
<rect x="1133" y="337.622" width="5" height="8" fill="#D7EBFF"/>
<rect x="1133" y="320.622" width="5" height="8" fill="#D7EBFF"/>
<rect x="1133" y="303.622" width="5" height="8" fill="#D7EBFF"/>
<rect x="1133" y="285.622" width="5" height="8" fill="#D7EBFF"/>
<rect x="1133" y="268.622" width="5" height="8" fill="#D7EBFF"/>
<rect x="1147" y="306.622" width="5" height="8" fill="#D7EBFF"/>
<rect x="1147" y="324.622" width="5" height="8" fill="#D7EBFF"/>
<rect x="1133" y="234.622" width="5" height="8" fill="#D7EBFF"/>
<rect x="1147" y="270.622" width="5" height="8" fill="#D7EBFF"/>
<rect x="1147" y="234.622" width="5" height="8" fill="#D7EBFF"/>
<rect x="1147" y="252.622" width="5" height="8" fill="#D7EBFF"/>
<rect x="1147" y="288.622" width="5" height="8" fill="#BDDFFF"/>
<rect x="1133" y="251.622" width="5" height="8" fill="#BDDFFF"/>
<rect x="958" y="138.622" width="75" height="282" fill="#F3F9FF"/>
<rect x="965" y="290.622" width="5" height="8" fill="#D7EBFF"/>
<rect x="964" y="305.622" width="5" height="8" fill="#D7EBFF"/>
<rect x="965" y="258.622" width="5" height="8" fill="#D7EBFF"/>
<rect x="965" y="243.622" width="5" height="8" fill="#D7EBFF"/>
<rect x="965" y="211.622" width="5" height="8" fill="#D7EBFF"/>
<rect x="964" y="196.622" width="5" height="8" fill="#D7EBFF"/>
<rect x="965" y="180.622" width="5" height="8" fill="#D7EBFF"/>
<rect x="994" y="187.622" width="5" height="8" fill="#D7EBFF"/>
<rect x="980" y="193.622" width="5" height="8" fill="#D7EBFF"/>
<rect x="979" y="223.622" width="5" height="8" fill="#D7EBFF"/>
<rect x="979" y="238.622" width="5" height="8" fill="#D7EBFF"/>
<rect x="979" y="283.622" width="5" height="8" fill="#D7EBFF"/>
<rect x="979" y="253.622" width="5" height="8" fill="#D7EBFF"/>
<rect x="964" y="337.622" width="5" height="8" fill="#D7EBFF"/>
<rect x="1022" y="338.622" width="5" height="8" fill="#D7EBFF"/>
<rect x="993" y="149.622" width="5" height="8" fill="#D7EBFF"/>
<rect x="993" y="325.622" width="5" height="8" fill="#D7EBFF"/>
<rect x="964" y="321.622" width="5" height="8" fill="#D7EBFF"/>
<rect x="993" y="266.622" width="5" height="8" fill="#D7EBFF"/>
<rect x="964" y="149.622" width="5" height="8" fill="#D7EBFF"/>
<rect x="1008" y="223.622" width="5" height="8" fill="#D7EBFF"/>
<rect x="979" y="178.622" width="5" height="8" fill="#D7EBFF"/>
<rect x="1008" y="204.622" width="5" height="8" fill="#D7EBFF"/>
<rect x="1021" y="183.622" width="5" height="8" fill="#D7EBFF"/>
<rect x="1021" y="166.622" width="5" height="8" fill="#D7EBFF"/>
<rect x="1022" y="200.622" width="5" height="8" fill="#D7EBFF"/>
<rect x="1021" y="218.622" width="5" height="8" fill="#D7EBFF"/>
<rect x="1021" y="235.622" width="5" height="8" fill="#D7EBFF"/>
<rect x="1007" y="242.622" width="5" height="8" fill="#D7EBFF"/>
<rect x="993" y="304.622" width="5" height="8" fill="#D7EBFF"/>
<rect x="1008" y="317.622" width="5" height="8" fill="#D7EBFF"/>
<rect x="1008" y="298.622" width="5" height="8" fill="#D7EBFF"/>
<rect x="1021" y="304.622" width="5" height="8" fill="#D7EBFF"/>
<rect x="1022" y="286.622" width="5" height="8" fill="#D7EBFF"/>
<rect x="993" y="226.622" width="5" height="8" fill="#D7EBFF"/>
<rect x="1021" y="252.622" width="5" height="8" fill="#D7EBFF"/>
<rect x="993" y="245.622" width="5" height="8" fill="#D7EBFF"/>
<rect x="993" y="285.622" width="5" height="8" fill="#D7EBFF"/>
<rect x="979" y="298.622" width="5" height="8" fill="#D7EBFF"/>
<rect x="1008" y="261.622" width="5" height="8" fill="#D7EBFF"/>
<rect x="993" y="207.622" width="5" height="8" fill="#D7EBFF"/>
<rect x="978" y="209.622" width="5" height="8" fill="#D7EBFF"/>
<rect x="978" y="149.622" width="5" height="8" fill="#D7EBFF"/>
<rect x="1007" y="149.622" width="5" height="8" fill="#D7EBFF"/>
<rect x="1007" y="166.622" width="5" height="8" fill="#D7EBFF"/>
<rect x="993" y="168.622" width="5" height="8" fill="#D7EBFF"/>
<rect x="1007" y="336.622" width="5" height="8" fill="#BDDFFF"/>
<rect x="1022" y="321.622" width="5" height="8" fill="#BDDFFF"/>
<rect x="1008" y="280.622" width="5" height="8" fill="#BDDFFF"/>
<rect x="1022" y="269.622" width="5" height="8" fill="#BDDFFF"/>
<rect x="965" y="274.622" width="5" height="8" fill="#BDDFFF"/>
<rect x="979" y="268.622" width="5" height="8" fill="#BDDFFF"/>
<rect x="979" y="328.622" width="5" height="8" fill="#BDDFFF"/>
<rect x="979" y="313.622" width="5" height="8" fill="#BDDFFF"/>
<rect x="1022" y="148.622" width="5" height="8" fill="#BDDFFF"/>
<rect x="979" y="162.622" width="5" height="8" fill="#D7EBFF"/>
<rect x="964" y="228.622" width="5" height="8" fill="#BDDFFF"/>
<rect x="965" y="164.622" width="5" height="8" fill="#BDDFFF"/>
<rect x="1008" y="186.622" width="5" height="8" fill="#BDDFFF"/>
<rect x="748" y="138.622" width="75" height="282" fill="#F3F9FF"/>
<rect x="755" y="290.622" width="5" height="8" fill="#D7EBFF"/>
<rect x="754" y="305.622" width="5" height="8" fill="#D7EBFF"/>
<rect x="755" y="258.622" width="5" height="8" fill="#D7EBFF"/>
<rect x="755" y="243.622" width="5" height="8" fill="#D7EBFF"/>
<rect x="755" y="211.622" width="5" height="8" fill="#D7EBFF"/>
<rect x="754" y="196.622" width="5" height="8" fill="#D7EBFF"/>
<rect x="755" y="180.622" width="5" height="8" fill="#D7EBFF"/>
<rect x="784" y="187.622" width="5" height="8" fill="#D7EBFF"/>
<rect x="770" y="193.622" width="5" height="8" fill="#D7EBFF"/>
<rect x="769" y="223.622" width="5" height="8" fill="#D7EBFF"/>
<rect x="769" y="238.622" width="5" height="8" fill="#D7EBFF"/>
<rect x="769" y="283.622" width="5" height="8" fill="#D7EBFF"/>
<rect x="769" y="253.622" width="5" height="8" fill="#D7EBFF"/>
<rect x="754" y="337.622" width="5" height="8" fill="#D7EBFF"/>
<rect x="812" y="338.622" width="5" height="8" fill="#D7EBFF"/>
<rect x="783" y="149.622" width="5" height="8" fill="#D7EBFF"/>
<rect x="783" y="325.622" width="5" height="8" fill="#D7EBFF"/>
<rect x="754" y="321.622" width="5" height="8" fill="#D7EBFF"/>
<rect x="783" y="266.622" width="5" height="8" fill="#D7EBFF"/>
<rect x="754" y="149.622" width="5" height="8" fill="#D7EBFF"/>
<rect x="798" y="223.622" width="5" height="8" fill="#D7EBFF"/>
<rect x="769" y="178.622" width="5" height="8" fill="#D7EBFF"/>
<rect x="798" y="204.622" width="5" height="8" fill="#D7EBFF"/>
<rect x="811" y="183.622" width="5" height="8" fill="#D7EBFF"/>
<rect x="811" y="166.622" width="5" height="8" fill="#D7EBFF"/>
<rect x="812" y="200.622" width="5" height="8" fill="#D7EBFF"/>
<rect x="811" y="218.622" width="5" height="8" fill="#D7EBFF"/>
<rect x="811" y="235.622" width="5" height="8" fill="#D7EBFF"/>
<rect x="797" y="242.622" width="5" height="8" fill="#D7EBFF"/>
<rect x="783" y="304.622" width="5" height="8" fill="#D7EBFF"/>
<rect x="798" y="317.622" width="5" height="8" fill="#D7EBFF"/>
<rect x="798" y="298.622" width="5" height="8" fill="#D7EBFF"/>
<rect x="811" y="304.622" width="5" height="8" fill="#D7EBFF"/>
<rect x="812" y="286.622" width="5" height="8" fill="#D7EBFF"/>
<rect x="783" y="226.622" width="5" height="8" fill="#D7EBFF"/>
<rect x="811" y="252.622" width="5" height="8" fill="#D7EBFF"/>
<rect x="783" y="245.622" width="5" height="8" fill="#D7EBFF"/>
<rect x="783" y="285.622" width="5" height="8" fill="#D7EBFF"/>
<rect x="769" y="298.622" width="5" height="8" fill="#D7EBFF"/>
<rect x="798" y="261.622" width="5" height="8" fill="#D7EBFF"/>
<rect x="783" y="207.622" width="5" height="8" fill="#D7EBFF"/>
<rect x="768" y="209.622" width="5" height="8" fill="#D7EBFF"/>
<rect x="768" y="149.622" width="5" height="8" fill="#D7EBFF"/>
<rect x="797" y="149.622" width="5" height="8" fill="#D7EBFF"/>
<rect x="797" y="166.622" width="5" height="8" fill="#D7EBFF"/>
<rect x="783" y="168.622" width="5" height="8" fill="#D7EBFF"/>
<rect x="797" y="336.622" width="5" height="8" fill="#BDDFFF"/>
<rect x="812" y="321.622" width="5" height="8" fill="#BDDFFF"/>
<rect x="798" y="280.622" width="5" height="8" fill="#BDDFFF"/>
<rect x="812" y="269.622" width="5" height="8" fill="#BDDFFF"/>
<rect x="755" y="274.622" width="5" height="8" fill="#BDDFFF"/>
<rect x="769" y="268.622" width="5" height="8" fill="#BDDFFF"/>
<rect x="769" y="328.622" width="5" height="8" fill="#BDDFFF"/>
<rect x="769" y="313.622" width="5" height="8" fill="#BDDFFF"/>
<rect x="812" y="148.622" width="5" height="8" fill="#BDDFFF"/>
<rect x="769" y="162.622" width="5" height="8" fill="#D7EBFF"/>
<rect x="754" y="228.622" width="5" height="8" fill="#BDDFFF"/>
<rect x="755" y="164.622" width="5" height="8" fill="#BDDFFF"/>
<rect x="798" y="186.622" width="5" height="8" fill="#BDDFFF"/>
<rect x="495" y="337.622" width="5" height="8" fill="#BDDFFF"/>
<rect x="495" y="320.622" width="5" height="8" fill="#BDDFFF"/>
<rect x="495" y="269.622" width="5" height="8" fill="#BDDFFF"/>
<rect x="495" y="250.622" width="5" height="8" fill="#BDDFFF"/>
<rect x="528" y="217.622" width="83" height="203" fill="#F3F9FF"/>
<rect x="535" y="225.622" width="5" height="9" fill="#D7EBFF"/>
<rect x="565" y="224.622" width="5" height="9" fill="#D7EBFF"/>
<rect x="580" y="245.622" width="5" height="9" fill="#D7EBFF"/>
<rect x="594" y="224.622" width="5" height="9" fill="#D7EBFF"/>
<rect x="565" y="262.622" width="5" height="9" fill="#D7EBFF"/>
<rect x="550" y="262.622" width="5" height="8" fill="#BDDFFF"/>
<rect x="535" y="268.622" width="5" height="8" fill="#D7EBFF"/>
<rect x="535" y="330.622" width="5" height="8" fill="#D7EBFF"/>
<rect x="535" y="310.622" width="5" height="8" fill="#D7EBFF"/>
<rect x="565" y="338.622" width="5" height="8" fill="#D7EBFF"/>
<rect x="550" y="334.622" width="5" height="8" fill="#D7EBFF"/>
<rect x="550" y="315.622" width="5" height="8" fill="#D7EBFF"/>
<rect x="550" y="297.622" width="5" height="8" fill="#D7EBFF"/>
<rect x="550" y="279.622" width="5" height="8" fill="#D7EBFF"/>
<rect x="550" y="242.622" width="5" height="8" fill="#D7EBFF"/>
<rect x="580" y="285.622" width="5" height="8" fill="#D7EBFF"/>
<rect x="535" y="246.622" width="5" height="8" fill="#D7EBFF"/>
<rect x="594" y="246.622" width="5" height="8" fill="#D7EBFF"/>
<rect x="580" y="322.622" width="5" height="8" fill="#D7EBFF"/>
<rect x="565" y="319.622" width="5" height="8" fill="#D7EBFF"/>
<rect x="589" y="326.622" width="5" height="8" fill="#D7EBFF"/>
<rect x="580" y="303.622" width="5" height="8" fill="#D7EBFF"/>
<rect x="594" y="309.622" width="5" height="8" fill="#D7EBFF"/>
<rect x="595" y="267.622" width="5" height="8" fill="#D7EBFF"/>
<rect x="565" y="300.622" width="5" height="8" fill="#D7EBFF"/>
<rect x="550" y="225.622" width="5" height="8" fill="#D7EBFF"/>
<rect x="565" y="283.622" width="5" height="8" fill="#D7EBFF"/>
<rect x="594" y="288.622" width="5" height="8" fill="#BDDFFF"/>
<rect x="580" y="265.622" width="5" height="8" fill="#BDDFFF"/>
<rect x="594" y="330.622" width="5" height="8" fill="#BDDFFF"/>
<rect x="580" y="226.622" width="5" height="8" fill="#BDDFFF"/>
<rect x="589" y="245.622" width="5" height="8" fill="#BDDFFF"/>
<rect x="565" y="245.622" width="5" height="8" fill="#BDDFFF"/>
<rect x="535" y="289.622" width="5" height="8" fill="#BDDFFF"/>
<rect x="94" y="270.622" width="79" height="150" fill="#F3F9FF"/>
<rect x="100" y="278.622" width="5" height="9" fill="#D7EBFF"/>
<rect x="127" y="279.622" width="5" height="9" fill="#D7EBFF"/>
<rect x="141" y="279.622" width="5" height="9" fill="#D7EBFF"/>
<rect x="155" y="279.622" width="5" height="9" fill="#D7EBFF"/>
<rect x="127" y="312.622" width="5" height="9" fill="#D7EBFF"/>
<rect x="100" y="297.622" width="5" height="8" fill="#BDDFFF"/>
<rect x="100" y="316.622" width="5" height="8" fill="#BDDFFF"/>
<rect x="100" y="335.622" width="5" height="8" fill="#D7EBFF"/>
<rect x="114" y="338.622" width="5" height="8" fill="#D7EBFF"/>
<rect x="114" y="317.622" width="5" height="8" fill="#D7EBFF"/>
<rect x="141" y="321.622" width="5" height="8" fill="#D7EBFF"/>
<rect x="127" y="296.622" width="5" height="8" fill="#D7EBFF"/>
<rect x="155" y="340.622" width="5" height="8" fill="#D7EBFF"/>
<rect x="155" y="320.622" width="5" height="8" fill="#D7EBFF"/>
<rect x="127" y="329.622" width="5" height="8" fill="#D7EBFF"/>
<rect x="141" y="300.622" width="5" height="8" fill="#BDDFFF"/>
<rect x="155" y="300.622" width="5" height="8" fill="#BDDFFF"/>
<rect x="114" y="299.622" width="5" height="8" fill="#BDDFFF"/>
<rect x="114" y="280.622" width="5" height="8" fill="#BDDFFF"/>
<rect x="275" y="273.622" width="74" height="147" fill="#F3F9FF"/>
<rect x="281" y="278.622" width="5" height="9" fill="#D7EBFF"/>
<rect x="300" y="279.622" width="5" height="9" fill="#D7EBFF"/>
<rect x="317" y="279.622" width="5" height="9" fill="#D7EBFF"/>
<rect x="335" y="279.622" width="5" height="9" fill="#D7EBFF"/>
<rect x="281" y="310.622" width="5" height="9" fill="#D7EBFF"/>
<rect x="281" y="326.622" width="5" height="8" fill="#BDDFFF"/>
<rect x="281" y="341.622" width="5" height="8" fill="#D7EBFF"/>
<rect x="299" y="321.622" width="5" height="8" fill="#D7EBFF"/>
<rect x="336" y="315.622" width="5" height="8" fill="#D7EBFF"/>
<rect x="318" y="328.622" width="5" height="8" fill="#D7EBFF"/>
<rect x="300" y="300.622" width="5" height="8" fill="#D7EBFF"/>
<rect x="281" y="293.622" width="5" height="8" fill="#D7EBFF"/>
<rect x="336" y="332.622" width="5" height="8" fill="#D7EBFF"/>
<rect x="317" y="312.622" width="5" height="8" fill="#D7EBFF"/>
<rect x="317" y="295.622" width="5" height="8" fill="#BDDFFF"/>
<rect x="335" y="296.622" width="5" height="8" fill="#BDDFFF"/>
<rect x="353" y="250.622" width="77" height="170" fill="#F3F9FF"/>
<rect x="360" y="256.622" width="5" height="9" fill="#D7EBFF"/>
<rect x="375" y="256.622" width="5" height="9" fill="#D7EBFF"/>
<rect x="390" y="256.622" width="5" height="9" fill="#D7EBFF"/>
<rect x="405" y="256.622" width="5" height="9" fill="#D7EBFF"/>
<rect x="420" y="256.622" width="5" height="9" fill="#D7EBFF"/>
<rect x="420" y="275.622" width="5" height="9" fill="#D7EBFF"/>
<rect x="360" y="297.622" width="5" height="8" fill="#BDDFFF"/>
<rect x="405" y="315.622" width="5" height="8" fill="#D7EBFF"/>
<rect x="360" y="338.622" width="5" height="8" fill="#D7EBFF"/>
<rect x="375" y="336.622" width="5" height="8" fill="#D7EBFF"/>
<rect x="375" y="304.622" width="5" height="8" fill="#D7EBFF"/>
<rect x="420" y="293.622" width="5" height="8" fill="#D7EBFF"/>
<rect x="390" y="308.622" width="5" height="8" fill="#D7EBFF"/>
<rect x="390" y="274.622" width="5" height="8" fill="#D7EBFF"/>
<rect x="360" y="277.622" width="5" height="8" fill="#D7EBFF"/>
<rect x="413" y="328.622" width="5" height="8" fill="#D7EBFF"/>
<rect x="405" y="296.622" width="5" height="8" fill="#D7EBFF"/>
<rect x="390" y="291.622" width="5" height="8" fill="#D7EBFF"/>
<rect x="375" y="320.622" width="5" height="8" fill="#BDDFFF"/>
<rect x="390" y="326.622" width="5" height="8" fill="#BDDFFF"/>
<rect x="420" y="311.622" width="5" height="8" fill="#BDDFFF"/>
<rect x="420" y="329.622" width="5" height="8" fill="#BDDFFF"/>
<rect x="405" y="335.622" width="5" height="8" fill="#BDDFFF"/>
<rect x="360" y="318.622" width="5" height="8" fill="#BDDFFF"/>
<rect x="375" y="273.622" width="5" height="8" fill="#BDDFFF"/>
<rect x="375" y="289.622" width="5" height="8" fill="#BDDFFF"/>
<rect x="405" y="277.622" width="5" height="8" fill="#BDDFFF"/>
<rect x="-50" y="100.622" width="79" height="320" fill="#F3F9FF"/>
<rect x="5" y="233.622" width="5" height="8" fill="#D7EBFF"/>
<rect x="6" y="317.622" width="5" height="8" fill="#D7EBFF"/>
<rect x="6" y="296.622" width="5" height="8" fill="#D7EBFF"/>
<rect x="6" y="338.622" width="5" height="8" fill="#D7EBFF"/>
<rect x="6" y="275.622" width="5" height="8" fill="#D7EBFF"/>
<rect x="7" y="254.622" width="5" height="8" fill="#D7EBFF"/>
<rect x="6" y="170.622" width="5" height="8" fill="#BDDFFF"/>
<rect x="6" y="149.622" width="5" height="8" fill="#BDDFFF"/>
<rect x="6" y="212.622" width="5" height="8" fill="#D7EBFF"/>
<rect x="6" y="191.622" width="5" height="8" fill="#D7EBFF"/>
<rect x="6" y="128.622" width="5" height="8" fill="#D7EBFF"/>
<rect x="6" y="107.622" width="5" height="8" fill="#D7EBFF"/>
<rect x="617" y="118.622" width="67" height="302" fill="#F3F9FF"/>
<rect x="624" y="339.622" width="5" height="8" fill="#D7EBFF"/>
<rect x="624" y="323.622" width="5" height="8" fill="#D7EBFF"/>
<rect x="624" y="306.622" width="5" height="8" fill="#D7EBFF"/>
<rect x="624" y="290.622" width="5" height="8" fill="#D7EBFF"/>
<rect x="624" y="273.622" width="5" height="8" fill="#D7EBFF"/>
<rect x="638" y="335.622" width="5" height="8" fill="#D7EBFF"/>
<rect x="638" y="314.622" width="5" height="8" fill="#D7EBFF"/>
<rect x="638" y="293.622" width="5" height="8" fill="#D7EBFF"/>
<rect x="652" y="272.622" width="5" height="8" fill="#D7EBFF"/>
<rect x="652" y="293.622" width="5" height="8" fill="#D7EBFF"/>
<rect x="652" y="314.622" width="5" height="8" fill="#D7EBFF"/>
<rect x="652" y="335.622" width="5" height="8" fill="#D7EBFF"/>
<rect x="638" y="272.622" width="5" height="8" fill="#D7EBFF"/>
<rect x="624" y="257.622" width="5" height="8" fill="#D7EBFF"/>
<rect x="623" y="240.622" width="5" height="8" fill="#D7EBFF"/>
<rect x="667" y="246.622" width="5" height="8" fill="#D7EBFF"/>
<rect x="667" y="332.622" width="5" height="8" fill="#D7EBFF"/>
<rect x="667" y="315.622" width="5" height="8" fill="#D7EBFF"/>
<rect x="667" y="297.622" width="5" height="8" fill="#D7EBFF"/>
<rect x="666" y="280.622" width="5" height="8" fill="#D7EBFF"/>
<rect x="652" y="230.622" width="5" height="8" fill="#BDDFFF"/>
<rect x="666" y="263.622" width="5" height="8" fill="#BDDFFF"/>
<rect x="652" y="251.622" width="5" height="8" fill="#D7EBFF"/>
<rect x="624" y="191.622" width="5" height="8" fill="#BDDFFF"/>
<rect x="638" y="230.622" width="5" height="8" fill="#BDDFFF"/>
<rect x="666" y="194.622" width="5" height="8" fill="#BDDFFF"/>
<rect x="652" y="145.622" width="5" height="8" fill="#BDDFFF"/>
<rect x="666" y="125.622" width="5" height="8" fill="#BDDFFF"/>
<rect x="652" y="125.622" width="5" height="8" fill="#BDDFFF"/>
<rect x="666" y="229.622" width="5" height="8" fill="#D7EBFF"/>
<rect x="666" y="211.622" width="5" height="8" fill="#D7EBFF"/>
<rect x="652" y="188.622" width="5" height="8" fill="#D7EBFF"/>
<rect x="652" y="167.622" width="5" height="8" fill="#D7EBFF"/>
<rect x="623" y="174.622" width="5" height="8" fill="#D7EBFF"/>
<rect x="624" y="158.622" width="5" height="8" fill="#D7EBFF"/>
<rect x="666" y="159.622" width="5" height="8" fill="#D7EBFF"/>
<rect x="666" y="142.622" width="5" height="8" fill="#D7EBFF"/>
<rect x="666" y="177.622" width="5" height="8" fill="#D7EBFF"/>
<rect x="638" y="146.622" width="5" height="8" fill="#D7EBFF"/>
<rect x="638" y="167.622" width="5" height="8" fill="#D7EBFF"/>
<rect x="638" y="188.622" width="5" height="8" fill="#D7EBFF"/>
<rect x="624" y="141.622" width="5" height="8" fill="#D7EBFF"/>
<rect x="623" y="125.622" width="5" height="8" fill="#D7EBFF"/>
<rect x="638" y="125.622" width="5" height="8" fill="#D7EBFF"/>
<rect x="623" y="224.622" width="5" height="8" fill="#D7EBFF"/>
<rect x="623" y="207.622" width="5" height="8" fill="#D7EBFF"/>
<rect x="638" y="209.622" width="5" height="8" fill="#D7EBFF"/>
<rect x="638" y="251.622" width="5" height="8" fill="#D7EBFF"/>
<rect x="652" y="209.622" width="5" height="8" fill="#D7EBFF"/>
<rect x="40" y="155.622" width="49" height="265" fill="#F3F9FF"/>
<rect x="46" y="330.622" width="5" height="8" fill="#D7EBFF"/>
<rect x="46" y="309.622" width="5" height="8" fill="#D7EBFF"/>
<rect x="46" y="289.622" width="5" height="8" fill="#D7EBFF"/>
<rect x="46" y="268.622" width="5" height="8" fill="#D7EBFF"/>
<rect x="66" y="325.622" width="5" height="8" fill="#D7EBFF"/>
<rect x="65" y="305.622" width="5" height="8" fill="#D7EBFF"/>
<rect x="65" y="287.622" width="5" height="8" fill="#D7EBFF"/>
<rect x="65" y="264.622" width="5" height="8" fill="#D7EBFF"/>
<rect x="65" y="224.622" width="5" height="8" fill="#D7EBFF"/>
<rect x="46" y="247.622" width="5" height="8" fill="#D7EBFF"/>
<rect x="46" y="226.622" width="5" height="8" fill="#D7EBFF"/>
<rect x="65" y="244.622" width="5" height="8" fill="#BDDFFF"/>
<rect x="65" y="183.622" width="5" height="8" fill="#BDDFFF"/>
<rect x="65" y="163.622" width="5" height="8" fill="#D7EBFF"/>
<rect x="46" y="206.622" width="5" height="8" fill="#D7EBFF"/>
<rect x="46" y="164.622" width="5" height="8" fill="#D7EBFF"/>
<rect x="46" y="183.622" width="5" height="8" fill="#D7EBFF"/>
<rect x="65" y="206.622" width="5" height="8" fill="#D7EBFF"/>
<rect x="178" y="140.622" width="56" height="280" fill="#F3F9FF"/>
<rect x="197" y="338.622" width="5" height="8" fill="#D7EBFF"/>
<rect x="183" y="313.622" width="5" height="8" fill="#D7EBFF"/>
<rect x="182" y="328.622" width="5" height="9" fill="#D7EBFF"/>
<rect x="182" y="298.622" width="5" height="8" fill="#D7EBFF"/>
<rect x="182" y="268.622" width="5" height="8" fill="#D7EBFF"/>
<rect x="182" y="283.622" width="5" height="8" fill="#D7EBFF"/>
<rect x="183" y="253.622" width="5" height="8" fill="#D7EBFF"/>
<rect x="197" y="234.622" width="5" height="8" fill="#D7EBFF"/>
<rect x="212" y="223.622" width="5" height="8" fill="#D7EBFF"/>
<rect x="212" y="335.622" width="5" height="8" fill="#D7EBFF"/>
<rect x="197" y="321.622" width="5" height="8" fill="#D7EBFF"/>
<rect x="198" y="304.622" width="5" height="8" fill="#D7EBFF"/>
<rect x="197" y="286.622" width="5" height="8" fill="#D7EBFF"/>
<rect x="212" y="279.622" width="5" height="8" fill="#D7EBFF"/>
<rect x="197" y="269.622" width="5" height="8" fill="#D7EBFF"/>
<rect x="197" y="252.622" width="5" height="8" fill="#D7EBFF"/>
<rect x="212" y="261.622" width="5" height="8" fill="#D7EBFF"/>
<rect x="212" y="242.622" width="5" height="8" fill="#D7EBFF"/>
<rect x="198" y="217.622" width="5" height="8" fill="#D7EBFF"/>
<rect x="182" y="238.622" width="5" height="8" fill="#D7EBFF"/>
<rect x="182" y="208.622" width="5" height="8" fill="#D7EBFF"/>
<rect x="212" y="298.622" width="5" height="8" fill="#BDDFFF"/>
<rect x="212" y="317.622" width="5" height="8" fill="#BDDFFF"/>
<rect x="182" y="223.622" width="5" height="8" fill="#BDDFFF"/>
<rect x="197" y="183.622" width="5" height="8" fill="#BDDFFF"/>
<rect x="182" y="178.622" width="5" height="8" fill="#BDDFFF"/>
<rect x="198" y="165.622" width="5" height="8" fill="#BDDFFF"/>
<rect x="183" y="148.622" width="5" height="8" fill="#BDDFFF"/>
<rect x="182" y="193.622" width="5" height="8" fill="#BDDFFF"/>
<rect x="197" y="148.622" width="5" height="8" fill="#D7EBFF"/>
<rect x="197" y="200.622" width="5" height="8" fill="#D7EBFF"/>
<rect x="212" y="148.622" width="5" height="8" fill="#D7EBFF"/>
<rect x="212" y="167.622" width="5" height="8" fill="#D7EBFF"/>
<rect x="182" y="163.622" width="5" height="8" fill="#D7EBFF"/>
<rect x="212" y="186.622" width="5" height="8" fill="#D7EBFF"/>
<rect x="212" y="204.622" width="5" height="8" fill="#D7EBFF"/>
<rect x="238" y="149.622" width="33" height="271" fill="#F3F9FF"/>
<rect x="260" y="338.622" width="5" height="8" fill="#D7EBFF"/>
<rect x="245" y="319.622" width="5" height="8" fill="#D7EBFF"/>
<rect x="245" y="339.622" width="5" height="9" fill="#D7EBFF"/>
<rect x="245" y="299.622" width="5" height="8" fill="#D7EBFF"/>
<rect x="245" y="278.622" width="5" height="8" fill="#D7EBFF"/>
<rect x="245" y="258.622" width="5" height="8" fill="#D7EBFF"/>
<rect x="260" y="322.622" width="5" height="8" fill="#D7EBFF"/>
<rect x="260" y="305.622" width="5" height="8" fill="#D7EBFF"/>
<rect x="260" y="273.622" width="5" height="8" fill="#D7EBFF"/>
<rect x="261" y="256.622" width="5" height="8" fill="#D7EBFF"/>
<rect x="260" y="223.622" width="5" height="8" fill="#D7EBFF"/>
<rect x="260" y="190.622" width="5" height="8" fill="#D7EBFF"/>
<rect x="246" y="238.622" width="5" height="8" fill="#D7EBFF"/>
<rect x="245" y="218.622" width="5" height="8" fill="#D7EBFF"/>
<rect x="260" y="239.622" width="5" height="8" fill="#BDDFFF"/>
<rect x="261" y="289.622" width="5" height="8" fill="#BDDFFF"/>
<rect x="260" y="157.622" width="5" height="8" fill="#D7EBFF"/>
<rect x="245" y="198.622" width="5" height="8" fill="#D7EBFF"/>
<rect x="245" y="157.622" width="5" height="8" fill="#D7EBFF"/>
<rect x="245" y="178.622" width="5" height="8" fill="#D7EBFF"/>
<rect x="260" y="207.622" width="5" height="8" fill="#D7EBFF"/>
<rect x="260" y="173.622" width="5" height="8" fill="#D7EBFF"/>
<rect x="497" y="285.622" width="5" height="8" fill="#D7EBFF"/>
<rect x="497" y="303.622" width="5" height="9" fill="#D7EBFF"/>
<rect x="489" y="106.622" width="33" height="314" fill="#F3F9FF"/>
<rect x="497" y="148.622" width="5" height="8" fill="#D7EBFF"/>
<rect x="496" y="235.622" width="5" height="8" fill="#D7EBFF"/>
<rect x="497" y="216.622" width="5" height="8" fill="#D7EBFF"/>
<rect x="497" y="197.622" width="5" height="8" fill="#D7EBFF"/>
<rect x="497" y="183.622" width="5" height="8" fill="#D7EBFF"/>
<rect x="497" y="164.622" width="5" height="8" fill="#D7EBFF"/>
<rect x="497" y="113.622" width="5" height="8" fill="#D7EBFF"/>
<rect x="497" y="130.622" width="5" height="8" fill="#D7EBFF"/>
<rect x="442" y="273.622" width="5" height="8" fill="#D7EBFF"/>
<rect x="442" y="293.622" width="5" height="9" fill="#D7EBFF"/>
<rect x="436" y="246.622" width="47" height="174" fill="#F3F9FF"/>
<rect x="442" y="332.622" width="5" height="8" fill="#BDDFFF"/>
<rect x="442" y="313.622" width="5" height="8" fill="#BDDFFF"/>
<rect x="461" y="329.622" width="5" height="8" fill="#D7EBFF"/>
<rect x="461" y="314.622" width="5" height="8" fill="#D7EBFF"/>
<rect x="461" y="299.622" width="5" height="8" fill="#D7EBFF"/>
<rect x="461" y="284.622" width="5" height="8" fill="#BDDFFF"/>
<rect x="461" y="269.622" width="5" height="8" fill="#BDDFFF"/>
<rect x="461" y="254.622" width="5" height="8" fill="#BDDFFF"/>
<rect x="441" y="254.622" width="5" height="8" fill="#BDDFFF"/>
</g>
</g>
<g filter="url(#filter0_f_1090_17763)">
<ellipse cx="579.5" cy="209" rx="233.5" ry="211" fill="white"/>
</g>
<g filter="url(#filter1_f_1090_17763)">
<ellipse cx="804.5" cy="206" rx="233.5" ry="211" fill="white"/>
</g>
<g filter="url(#filter2_f_1090_17763)">
<ellipse cx="301.5" cy="165" rx="233.5" ry="211" fill="white"/>
</g>
</g>
</g>
<defs>
<filter id="filter0_f_1090_17763" x="146" y="-202" width="867" height="822" filterUnits="userSpaceOnUse" color-interpolation-filters="sRGB">
<feFlood flood-opacity="0" result="BackgroundImageFix"/>
<feBlend mode="normal" in="SourceGraphic" in2="BackgroundImageFix" result="shape"/>
<feGaussianBlur stdDeviation="100" result="effect1_foregroundBlur_1090_17763"/>
</filter>
<filter id="filter1_f_1090_17763" x="371" y="-205" width="867" height="822" filterUnits="userSpaceOnUse" color-interpolation-filters="sRGB">
<feFlood flood-opacity="0" result="BackgroundImageFix"/>
<feBlend mode="normal" in="SourceGraphic" in2="BackgroundImageFix" result="shape"/>
<feGaussianBlur stdDeviation="100" result="effect1_foregroundBlur_1090_17763"/>
</filter>
<filter id="filter2_f_1090_17763" x="-132" y="-246" width="867" height="822" filterUnits="userSpaceOnUse" color-interpolation-filters="sRGB">
<feFlood flood-opacity="0" result="BackgroundImageFix"/>
<feBlend mode="normal" in="SourceGraphic" in2="BackgroundImageFix" result="shape"/>
<feGaussianBlur stdDeviation="100" result="effect1_foregroundBlur_1090_17763"/>
</filter>
<clipPath id="clip0_1090_17763">
<rect width="1157" height="342" fill="white"/>
</clipPath>
<clipPath id="clip1_1090_17763">
<rect width="1440" height="337" fill="white" transform="translate(-141 83.6221)"/>
</clipPath>
</defs>
</svg>
